<?xml version="1.0" encoding="UTF-8"?>
<svg id="Layer_1" data-name="Layer 1" xmlns="http://www.w3.org/2000/svg" xmlns:xlink="http://www.w3.org/1999/xlink" viewBox="0 0 500 500">
  <defs>
    <clipPath id="clippath">
      <rect x="-14.22" y="-505.51" width="1628.44" height="461.02" fill="none"/>
    </clipPath>
    <clipPath id="clippath-1">
      <rect x="-14.22" y="-505.51" width="2432.75" height="970.98" fill="none"/>
    </clipPath>
    <clipPath id="clippath-2">
      <rect x="-14.22" y="-505.51" width="2432.75" height="970.98" fill="none"/>
    </clipPath>
    <clipPath id="clippath-3">
      <rect x="-14.22" y="-505.51" width="2432.75" height="970.98" fill="none"/>
    </clipPath>
    <clipPath id="clippath-4">
      <rect x="-14.22" y="-505.51" width="2432.75" height="970.98" fill="none"/>
    </clipPath>
    <clipPath id="clippath-5">
      <rect x="-14.22" y="-505.51" width="2432.75" height="970.98" fill="none"/>
    </clipPath>
    <clipPath id="clippath-6">
      <rect x="-14.22" y="-505.51" width="2432.75" height="970.98" fill="none"/>
    </clipPath>
    <clipPath id="clippath-7">
      <rect x="-14.22" y="-505.51" width="2432.75" height="970.98" fill="none"/>
    </clipPath>
    <clipPath id="clippath-8">
      <rect x="-14.22" y="-505.51" width="2432.75" height="970.98" fill="none"/>
    </clipPath>
    <clipPath id="clippath-9">
      <rect x="-14.22" y="-505.51" width="2432.75" height="970.98" fill="none"/>
    </clipPath>
    <clipPath id="clippath-10">
      <rect x="-14.22" y="-505.51" width="2432.75" height="970.98" fill="none"/>
    </clipPath>
    <clipPath id="clippath-11">
      <rect x="-14.22" y="-505.51" width="2432.75" height="970.98" fill="none"/>
    </clipPath>
    <clipPath id="clippath-12">
      <rect x="-14.22" y="-505.51" width="2432.75" height="970.98" fill="none"/>
    </clipPath>
    <clipPath id="clippath-13">
      <rect x="-14.22" y="-505.51" width="2432.75" height="970.98" fill="none"/>
    </clipPath>
    <clipPath id="clippath-14">
      <rect x="-14.22" y="-505.51" width="2432.75" height="970.98" fill="none"/>
    </clipPath>
    <clipPath id="clippath-15">
      <rect x="-14.22" y="-505.51" width="2432.75" height="970.98" fill="none"/>
    </clipPath>
    <clipPath id="clippath-16">
      <rect x="-14.22" y="-505.51" width="2432.75" height="970.98" fill="none"/>
    </clipPath>
    <clipPath id="clippath-17">
      <rect x="-14.22" y="-505.51" width="2432.75" height="970.98" fill="none"/>
    </clipPath>
    <clipPath id="clippath-18">
      <rect x="-14.22" y="-505.51" width="2432.75" height="970.98" fill="none"/>
    </clipPath>
    <clipPath id="clippath-19">
      <rect x="-14.22" y="-505.51" width="2432.75" height="970.98" fill="none"/>
    </clipPath>
    <clipPath id="clippath-20">
      <rect x="-14.22" y="-505.51" width="2432.75" height="970.98" fill="none"/>
    </clipPath>
    <clipPath id="clippath-21">
      <rect x="-14.22" y="-505.51" width="2432.75" height="970.98" fill="none"/>
    </clipPath>
    <clipPath id="clippath-22">
      <rect x="-14.22" y="-505.51" width="2432.75" height="970.98" fill="none"/>
    </clipPath>
    <clipPath id="clippath-23">
      <rect x="-14.22" y="-505.51" width="2432.75" height="970.98" fill="none"/>
    </clipPath>
    <clipPath id="clippath-24">
      <rect x="-14.22" y="-505.51" width="2432.75" height="970.98" fill="none"/>
    </clipPath>
  </defs>
  <g clip-path="url(#clippath)">
    <g id="Layer_1-2" data-name="Layer 1">
      <g>
        <g clip-path="url(#clippath-1)">
          <rect x="-14.22" y="-505.51" width="2432.75" height="970.98" fill="#000009"/>
        </g>
        <g clip-path="url(#clippath-2)">
          <path d="m2418.95,26.02v439.78H210.45v.87c.26-.54.51-1.08.77-1.62.51-1.08,1.02-2.16,1.53-3.24,65.56-138.45,142.68-282.95,230.73-431.65,88.05-148.7,187.04-301.6,296.34-456.86,13.66-19.41,27.49-38.85,41.47-58.33,3.5-4.87,7-9.74,10.52-14.61,1.76-2.44,3.52-4.87,5.28-7.31v1.13h1621.86V26.02Z" fill="#000009"/>
        </g>
        <g clip-path="url(#clippath-3)">
          <path d="m2418.95,20.8v445H222.9v1.57c.25-.53.5-1.07.75-1.6,2.01-4.28,4.03-8.56,6.06-12.85,65.01-137.29,141.48-280.57,228.79-428.02,87.31-147.45,185.46-299.06,293.84-453.01,13.55-19.24,27.26-38.52,41.12-57.84,3.47-4.83,6.94-9.66,10.43-14.49,1.74-2.42,3.49-4.83,5.24-7.25v1.86h1609.82V20.8Z" fill="#00010a"/>
        </g>
        <g clip-path="url(#clippath-4)">
          <path d="m2418.95,15.58v450.22H236.2v.49c.49-1.06.99-2.12,1.48-3.18.99-2.12,1.98-4.24,2.98-6.36,1.99-4.24,4-8.49,6.01-12.74,64.46-136.12,140.27-278.18,226.84-424.38,86.57-146.19,183.89-296.52,291.35-449.16,13.43-19.08,27.02-38.2,40.77-57.34,3.44-4.79,6.88-9.58,10.34-14.37.86-1.2,1.73-2.4,2.59-3.59.43-.6.87-1.2,1.3-1.8v.79h1599.09V15.58Z" fill="#00010a"/>
        </g>
        <g clip-path="url(#clippath-5)">
          <path d="m2418.95,10.35v455.44H248.86v.84c.97-2.09,1.94-4.19,2.92-6.29,3.91-8.39,7.86-16.8,11.85-25.23,63.9-134.95,139.07-275.8,224.9-420.74,85.83-144.94,182.31-293.98,288.85-445.31,13.32-18.92,26.79-37.87,40.42-56.85,3.41-4.75,6.82-9.49,10.25-14.24.86-1.19,1.71-2.38,2.57-3.56.43-.59.86-1.19,1.29-1.78v1.54h1587.04V10.35Z" fill="#00020b"/>
        </g>
        <g clip-path="url(#clippath-6)">
          <path d="m2418.95,5.13v460.67H261.64v1c.48-1.04.96-2.07,1.43-3.11,1.91-4.15,3.84-8.3,5.78-12.46,3.87-8.32,7.79-16.65,11.75-25.02,63.35-133.79,137.87-273.42,222.95-417.1,85.08-143.69,180.73-291.43,286.35-441.46,13.2-18.75,26.56-37.54,40.07-56.36,3.38-4.71,6.77-9.41,10.16-14.12.85-1.18,1.7-2.35,2.55-3.53v.52h1576.27V5.13Z" fill="#00020c"/>
        </g>
        <g clip-path="url(#clippath-7)">
          <path d="m2418.95-.09v465.89H274.53v.99c7.5-16.39,15.18-32.88,23.03-49.46C360.36,284.71,434.22,146.3,518.56,3.86c84.34-142.43,179.16-288.89,283.85-437.61,13.09-18.59,26.33-37.21,39.72-55.87,3.35-4.66,6.71-9.33,10.07-14,.84-1.17,1.68-2.33,2.53-3.5v1.28h1564.21V-.09Z" fill="#00030d"/>
        </g>
        <g clip-path="url(#clippath-8)">
          <path d="m2418.95-5.32v471.11H287.53v.79c.46-1.01.92-2.03,1.38-3.04.92-2.03,1.85-4.06,2.78-6.09,7.44-16.25,15.05-32.59,22.83-49.02C376.76,276.98,449.98,139.78,533.58-1.4c83.6-141.18,177.58-286.35,281.36-433.76,12.97-18.43,26.1-36.89,39.37-55.38,3.32-4.62,6.65-9.25,9.99-13.88.83-1.16,1.67-2.31,2.51-3.47v2.04h1552.15V-5.32Z" fill="#00040d"/>
        </g>
        <g clip-path="url(#clippath-9)">
          <path d="m2418.95-10.54v476.33H300.63v.4c.91-2,1.81-4.01,2.72-6.02,1.82-4.01,3.65-8.03,5.5-12.06,7.37-16.1,14.91-32.3,22.62-48.59,61.69-130.29,134.26-266.26,217.12-406.19,82.86-139.93,176-283.81,278.86-429.91,12.86-18.26,25.87-36.56,39.02-54.89,3.29-4.58,6.59-9.17,9.9-13.75.41-.57.83-1.15,1.24-1.72v1.08h1541.33V-10.54Z" fill="#00050e"/>
        </g>
        <g clip-path="url(#clippath-10)">
          <path d="m2418.95-15.76v481.56H313.19v1.33c.22-.5.44-.99.67-1.49.44-.99.89-1.98,1.34-2.97,3.57-7.93,7.18-15.89,10.83-23.87,7.3-15.96,14.78-32.01,22.42-48.15,61.14-129.12,133.06-263.88,215.17-402.55,82.12-138.67,174.43-281.27,276.36-426.06,12.74-18.1,25.63-36.23,38.67-54.4,3.26-4.54,6.53-9.08,9.81-13.63v.16h1530.49V-15.76Z" fill="#00050f"/>
        </g>
        <g clip-path="url(#clippath-11)">
          <path d="m2418.95-20.98v486.78H325.87v2.03c.44-.98.87-1.96,1.31-2.94,1.75-3.92,3.5-7.84,5.27-11.78,3.54-7.86,7.11-15.75,10.73-23.66,7.24-15.82,14.65-31.72,22.22-47.72,60.59-127.95,131.86-261.49,213.23-398.91,81.37-137.42,172.85-278.72,273.86-422.21,12.63-17.94,25.4-35.9,38.33-53.9,3.23-4.5,6.47-9,9.72-13.51v.95h1518.41V-20.98Z" fill="#000610"/>
        </g>
        <g clip-path="url(#clippath-12)">
          <path d="m2418.95-26.21v492H339.33v1.08c13.68-30.98,28.03-62.33,43.03-94.02,60.04-126.79,130.65-259.11,211.29-395.27,80.63-136.17,171.28-276.18,271.37-418.35,12.51-17.77,25.17-35.58,37.98-53.41,3.2-4.46,6.41-8.92,9.63-13.38v1.74h1506.33V-26.21Z" fill="#000711"/>
        </g>
        <g clip-path="url(#clippath-13)">
          <path d="m2418.95-31.43v497.23H352.26v1.37c.21-.48.42-.96.63-1.44.42-.96.84-1.91,1.26-2.87.84-1.92,1.69-3.83,2.53-5.75,13.55-30.69,27.77-61.75,42.64-93.16,59.48-125.62,129.45-256.72,209.34-391.64,79.89-134.91,169.7-273.64,268.87-414.5,12.4-17.61,24.94-35.25,37.63-52.92,1.59-2.21,3.17-4.42,4.76-6.63.8-1.1,1.59-2.21,2.39-3.32.4-.55.8-1.11,1.2-1.66v.88h1495.44V-31.43Z" fill="#000812"/>
        </g>
        <g clip-path="url(#clippath-14)">
          <path d="m2418.95-36.65v502.45H365.33v1.46c.41-.95.82-1.89,1.23-2.84.82-1.89,1.65-3.79,2.48-5.68,1.66-3.79,3.33-7.58,5-11.39,13.43-30.41,27.51-61.18,42.24-92.29,58.93-124.45,128.25-254.34,207.4-388,79.15-133.66,168.12-271.1,266.37-410.65,12.28-17.44,24.71-34.92,37.28-52.43,1.57-2.19,3.14-4.38,4.72-6.57.79-1.09,1.58-2.19,2.37-3.28v.04h1484.53V-36.65Z" fill="#000812"/>
        </g>
        <g clip-path="url(#clippath-15)">
          <path d="m2418.95-41.87v507.67H378.52v1.33c.2-.47.4-.93.6-1.4.81-1.87,1.61-3.74,2.42-5.61,3.24-7.48,6.53-14.99,9.85-22.52,13.3-30.12,27.25-60.61,41.85-91.43,58.38-123.28,127.05-251.95,205.45-384.36,78.41-132.41,166.55-268.56,263.87-406.8,12.17-17.28,24.48-34.59,36.93-51.94,1.56-2.17,3.12-4.34,4.68-6.5.78-1.08,1.56-2.17,2.34-3.25v.86h1472.43V-41.87Z" fill="#000913"/>
        </g>
        <g clip-path="url(#clippath-16)">
          <path d="m2418.95-47.1V465.8H391.84v.99c.79-1.84,1.58-3.69,2.37-5.54,1.59-3.7,3.18-7.4,4.79-11.1,3.21-7.41,6.47-14.85,9.76-22.31,13.17-29.84,26.99-60.03,41.45-90.56,57.83-122.12,125.84-249.57,203.51-380.72,77.66-131.15,164.97-266.02,261.38-402.95,12.05-17.12,24.24-34.27,36.58-51.45,1.54-2.15,3.09-4.3,4.63-6.44.77-1.07,1.55-2.15,2.32-3.22v1.69h1460.33V-47.1Z" fill="#000a14"/>
        </g>
        <g clip-path="url(#clippath-17)">
          <path d="m2418.95-52.32V465.8H404.71v1.8c.77-1.82,1.54-3.64,2.32-5.47,6.2-14.6,12.57-29.28,19.09-44.06,13.05-29.55,26.74-59.46,41.05-89.7,57.27-120.95,124.64-247.18,201.56-377.09,76.92-129.9,163.39-263.47,258.88-399.1,11.94-16.95,24.01-33.94,36.23-50.95,1.53-2.13,3.06-4.25,4.59-6.38.38-.53.77-1.06,1.15-1.6v.91h1449.37V-52.32Z" fill="#000b15"/>
        </g>
        <g clip-path="url(#clippath-18)">
          <path d="m2418.95-57.54V465.8H418.29v1.02c.19-.45.38-.9.57-1.35.38-.9.76-1.8,1.14-2.7,1.52-3.6,3.04-7.21,4.58-10.82,6.14-14.45,12.45-29,18.91-43.63,12.92-29.27,26.48-58.89,40.66-88.83,56.72-119.78,123.44-244.8,199.62-373.45,76.18-128.65,161.82-260.93,256.38-395.25,11.82-16.79,23.78-33.61,35.88-50.46,1.51-2.11,3.03-4.21,4.54-6.32v.17h1438.39V-57.54Z" fill="#000b16"/>
        </g>
        <g clip-path="url(#clippath-19)">
          <path d="m2418.95-62.76V453.94h1.08c-1.81,1.83-3.63,3.66-5.44,5.49-1.81,1.83-3.63,3.66-5.44,5.48-.91.91-1.82,1.82-2.72,2.74v-1.85H431.99v.03c.37-.89.74-1.78,1.11-2.67,2.96-7.11,5.97-14.25,9.01-21.4,6.08-14.31,12.33-28.72,18.72-43.21,12.8-28.98,26.22-58.31,40.26-87.97,56.17-118.62,122.24-242.41,197.67-369.81,75.44-127.4,160.24-258.39,253.88-391.4,11.71-16.63,23.55-33.28,35.53-49.97,1.5-2.09,3-4.17,4.5-6.26v1.03h1426.27V-62.76Z" fill="#000c17"/>
        </g>
        <g clip-path="url(#clippath-20)">
          <path d="m2418.95-67.99v508.9h1.86c-.9.91-1.8,1.82-2.69,2.72-1.8,1.81-3.59,3.63-5.39,5.44-3.59,3.62-7.19,7.24-10.78,10.84-1.8,1.8-3.6,3.61-5.39,5.41-.9.9-1.8,1.8-2.7,2.7v-2.23H445.28v.14c.36-.88.72-1.75,1.08-2.63,1.45-3.51,2.9-7.02,4.37-10.55,2.93-7.04,5.91-14.11,8.92-21.19,6.02-14.17,12.2-28.44,18.54-42.78,12.67-28.7,25.96-57.74,39.87-87.1,55.62-117.45,121.03-240.03,195.73-366.17,74.69-126.14,158.66-255.85,251.39-387.55,11.59-16.46,23.32-32.96,35.18-49.48,1.48-2.07,2.97-4.13,4.45-6.2v1.88h1414.14V-67.99Z" fill="#000d18"/>
        </g>
        <g clip-path="url(#clippath-21)">
          <path d="m2418.95-73.21v501.14h2.58c-3.56,3.6-7.11,7.19-10.67,10.78-7.12,7.17-14.24,14.32-21.36,21.43-1.78,1.78-3.56,3.56-5.34,5.33-.45.44-.89.89-1.34,1.33v-1.01H458.71c.35-.85.71-1.72,1.06-2.58,22.61-55.41,47.72-112.28,75.25-170.42,55.06-116.28,119.83-237.64,193.78-362.53,73.95-124.89,157.09-253.31,248.89-383.7,11.48-16.3,23.09-32.63,34.83-48.99.73-1.02,1.47-2.04,2.2-3.07.37-.51.74-1.02,1.1-1.53v1.2h1403.12V-73.21Z" fill="#000e19"/>
        </g>
        <g clip-path="url(#clippath-22)">
          <path d="m2418.95-78.43v496.11h.61c-3.52,3.56-7.04,7.12-10.56,10.67-7.04,7.1-14.09,14.17-21.14,21.22-3.53,3.52-7.05,7.04-10.58,10.54-1.76,1.75-3.53,3.51-5.29,5.26-.88.88-1.76,1.75-2.65,2.62v-2.2H471.25v2.2c.69-1.71,1.37-3.41,2.06-5.12,1.38-3.42,2.77-6.84,4.17-10.27,22.39-54.85,47.24-111.16,74.5-168.71,54.51-115.12,118.63-235.26,191.84-358.9,73.21-123.64,155.51-250.76,246.39-379.85,11.36-16.14,22.85-32.3,34.48-48.5.73-1.01,1.45-2.02,2.18-3.04v.55h1392.08V-78.43Z" fill="#000f1a"/>
        </g>
        <g clip-path="url(#clippath-23)">
          <path d="m2418.95-83.66v488.44h1.26c-.87.88-1.74,1.77-2.61,2.65-3.49,3.53-6.97,7.05-10.46,10.56-13.95,14.06-27.91,28-41.88,41.83-1.75,1.73-3.49,3.46-5.24,5.18-.87.86-1.75,1.72-2.62,2.59v-1.8H484.99v1.55c.67-1.68,1.34-3.37,2.01-5.05,2.69-6.74,5.43-13.51,8.2-20.29,22.16-54.3,46.76-110.03,73.74-167,53.96-113.95,117.43-232.88,189.9-355.26,72.47-122.38,153.94-248.22,243.89-376,11.24-15.97,22.62-31.98,34.13-48.01.72-1,1.44-2,2.16-3.01v1.44h1379.93V-83.66Z" fill="#000f1b"/>
        </g>
        <g clip-path="url(#clippath-24)">
          <path d="m2418.95-88.88v480.81h1.85c-1.72,1.75-3.45,3.5-5.17,5.24-3.45,3.49-6.9,6.98-10.35,10.45-13.8,13.91-27.62,27.71-41.45,41.4-3.46,3.42-6.91,6.84-10.37,10.25-1.73,1.7-3.46,3.41-5.19,5.11-.86.85-1.73,1.7-2.59,2.55v-1.14H498.87v.66c.65-1.66,1.31-3.32,1.96-4.98,1.31-3.33,2.64-6.66,3.97-9.99,2.67-6.67,5.37-13.37,8.11-20.09,21.93-53.74,46.28-108.9,72.99-165.29,53.41-112.78,116.22-230.49,187.95-351.62,71.73-121.13,152.36-245.68,241.4-372.15,11.13-15.81,22.39-31.65,33.78-47.51.36-.5.71-.99,1.07-1.49v.83h1368.85V-88.88Z" fill="#00101c"/>
        </g>
      </g>
    </g>
  </g>
  <g>
    <path d="m338.13,289.08c-.03.12-1.96,12.4-2.69,25.92-1.29,24.1,2.48,29.17,2.51,29.22,2.63,3.33,5.71,4.94,9.43,4.94,1.34,0,2.33-.22,2.64-.3,1.18-.44,2.39-.66,3.59-.66,3.36,0,6.54,1.7,8.54,4.68,2.73,4.06,2.04,9.54-1.34,13.08-2.82,2.94-5.83,5.13-8.79,6.75.79.78,1.56,1.5,2.3,2.19h19.22v-72.85c-13.28-1.46-24.71-6.4-35.35-13.56-.01.2-.03.39-.05.59Z" fill="#fff"/>
    <path d="m356.9,204.77c-12.02-3.67-18.45-12.85-20.67-22.91-2.2,8.17-3.29,16.67-2.95,24.47l.14,3.33c6.32,1.55,13.82,2.89,21.75,4.28,6.36,1.13,12.58,2.24,18.36,3.47v-12.35c-2.58.69-5.19,1.03-7.85,1.03-2.94,0-5.89-.44-8.78-1.33Z" fill="#fff"/>
    <path d="m253.98,169.42c3.81.55,7.47,1.26,10.97,2.12.27-3.69.88-7.27,1.56-10.69,4.58-22.68,17.83-42.57,25.32-52.41,5.04-6.61,10.47-12.39,16.34-17.37-5.88-5-13-8.54-21.34-9.52-5.54-.65-11.15-.18-16.56,1.17,8.2,4.23,13.88,12.39,13.79,22.99-2.2-10.24-10.94-17.64-20.87-17.6-2.86.03-5.71.88-8.99,1.99-.33.09-.62.14-.92.18-2.11,1.41-4.12,2.94-6,4.61-10.54,9.32-17.85,19.91-22.86,31.84.52-.17,1.03-.33,1.56-.44,14.34-3.8,30.39,3.21,36.85,16.42-5.54-7.23-14.17-11.48-22.48-11.54-8.24-.17-14.62,3.17-20.44,8.82-.09.36-.19.73-.3,1.11-.38,1.47-.74,2.98-1.08,4.5.99.05,1.98.25,2.95.59,18.83,6.73,28.17,16.77,32.5,23.25Z" fill="#fff"/>
    <path d="m164.77,238.9l.85-.16c1.22-5.18,3.08-10.07,5.57-14.48,0-.09,0-.18-.01-.27-.94.27-1.93.42-2.93.42-.85,0-1.7-.1-2.56-.33-4.62-1.17-7.85-5.32-7.85-10.08,0-10.43.98-21.53,12.01-32.79-.35.1-.57.18-.65.21-1.17.42-2.37.62-3.54.62-3.34,0-6.56-1.64-8.55-4.53-2.71-3.92-2.33-9.2.81-12.78.56-.65,14.17-15.89,37.51-15.89,4.12,0,7.99.47,11.58,1.21.82-4.5,1.72-8.44,2.54-11.59.14-.59.33-1.17.48-1.76.05-.56.19-1.11.46-1.65.99-3.43,2.13-6.75,3.38-9.97h-90.14v131.61c1.87-1.34,3.81-2.64,5.87-3.89,12.06-7.33,26.36-12.27,35.18-13.91Z" fill="#fff"/>
    <path d="m179.43,348.57c-8.12-4.55-13.26-10.86-14.09-11.93-.09-.12-.17-.23-.25-.34-3.71-.73-7.21-2.77-10.08-5.95-4.68-5.15-7.61-12.97-8.44-21.96-4.36,1.28-8.83,2.1-13.4,2.43-1.56.12-3.15.18-4.72.18s-3.15-.08-4.72-.2v64.09h39.33c-.34-2.02-.1-4.16.83-6.15,3.85-8.24,9.15-15.09,15.55-20.18Z" fill="#fff"/>
    <path d="m132.4,300.46c5.5-.42,10.28-1.63,14.17-3.02.01-.2.03-.4.04-.6.92-9.47,5.61-17.66,10.58-23.88-28.09,3.43-44.97,19.49-45.99,20.49,17.54-22.43,46.08-31.33,53.03-33.23-.34-3.51-.42-7.04-.21-10.53-7.55,1.82-19.13,6-29.01,12.01-17.83,10.82-27.15,25.46-31.23,32.96,4.16,2.11,13.01,5.93,24.67,5.93,1.29,0,2.6-.05,3.96-.14Z" fill="#fff"/>
    <path d="m389.14,232.89c-14.51-6.73-46.45-9.21-64.17-14.75-.39-.12-.79-.25-1.18-.38-.94-3.5-1.24-7.77-.92-10.98v-.59c-.7-20,6.96-45.79,20.56-61.11,3.33-3.76,17.43-16.5,36.85-16.5,5,0,3.14,2.47,3.14,2.47,0,0-5.27,7.92-6.24,9.63-2.06,3.56-5.26,8.77-6.77,12.58-3.64,7.9-2.69,15.85,2.33,15.85.57,0,1.21-.1,1.9-.33.88-.29,1.78-.65,2.3-.94,4.74-2.56-.61,3.82-5.4,3.82s-7.49-3.34-7.91-7.9c-.14-1.68.01-3.53.47-5.43,1.55-6.35,3.24-9.37,6.52-15.08,1.95-3.98,7.09-9.86,6.48-10.38-.05-.04-.14-.05-.29-.05-1.7,0-9.86,2.84-14.49,7.61-7.31,6.19-12.31,13.95-14.9,22.65-.46,1.56-.86,3.15-1.16,4.76-1.99,10.47,1.42,23.21,13.7,26.96.53.17,1.05.3,1.59.42-.69-1.91-1.02-3.84-1.04-5.76-.08-5,2.2-9.84,6-12.79-3.19,5.61-2.26,12.31,2.26,16.08.92.73,2,1.26,3.33,1.85,10.46-3.49,18.85-14.75,23.89-22.89,7.74-12.48,11.57-29.48,11.03-44.37-4.93,3.85-11.5,5.26-18.18,2.56,5.11.33,9.91-1.82,12.7-5.13,3.06-3.55,3.45-6.93,3.07-11.66-.01-.38.01-.75.06-1.12-3.02-10.58-9.12-20.22-19.52-26.11-7.18-4.07-15.46-5.97-23.77-5.97-6.08,0-12.16,1.01-17.85,2.94-1.39.48-2.75.98-4.09,1.51,11.02,6.99,17.96,18.37,17.44,32.38-.23,5.27-1.64,10.38-4.02,14.86,4.77-14.27-.79-30.2-13.27-37.61-3.45-2.04-7.39-3.15-11.75-4.11-10.93,6.25-19.91,14.6-27.71,24.84-4.39,5.76-8.57,12.15-12.24,18.88,11.5-2.94,23.54-.74,33.19,7.75,3.94,3.49,7.03,7.81,9,12.48-8.07-12.7-23.95-18.42-37.56-13.4-3.94,1.44-7.43,3.98-11.1,6.93-2.04,5.15-3.64,10.37-4.68,15.52-.77,3.8-1.43,7.73-1.5,11.64,12.35,4.44,21.35,18.33,25.07,25.01,1.17,2.08,1.82,3.46,1.9,3.63-.56-.46-14.62-11.93-26.41-17.33-3.32-1.29-6.84-2.46-10.58-3.47-5.46-1.48-11.36-2.64-17.75-3.27,0,0-5.2-14.46-29.46-23.12.53.36,9.03,6.23,9.03,14.83,0,0-12.72-11.57-31.62-11.57s-29.68,12.33-29.68,12.33c0,0,6.83-2.43,16.58-2.43,7.17,0,15.92,1.31,24.67,5.89,0,0-17.54,2.32-27.75,11.57-10.21,9.25-10.99,17.55-10.99,27.37,0,0,11.76-21.59,28.14-21.59,0,0-7.72,6.39-12.02,16.59.29-.39.57-.78.87-1.17-4.88,14.83-2.51,23.33-1.76,25.45,0,0,7.51-23.72,24.28-31.04,0,0-7.13,11.76-4.24,22.76,0,0,7-15.76,20.18-21.4,0,0-8.81,8.73-12.66,17.34-3.66,8.2-5.3,14.56-8.2,14.42-2.99-.16-5.69-1.65-7.47-3.9-.91,2.02-1.59,3.76-1.98,5-1.38,4.25-5.31,7.16-9.77,7.22h-.14c-2.94,0-5.65-1.24-7.57-3.29-.64,2.48-1.08,5.01-1.34,7.57-.14,1.46-.23,2.93-.27,4.38-.12,5.63.6,11.25,2.06,16.46,0,0-7.19,5.15-12.84,13.1.87.42,1.76.77,2.72.92,2.08.36,4.24.18,6.3-.3,1.7-.4,3.24-1.22,4.89-1.83,4.27-1.55,8.82-2.71,13.39-2.42,4.29.26,9.15,1.63,11.06,5.85-.21-.44-2.23-.83-2.63-.95-2.12-.6-4.35-.9-6.54-.81-2.9.13-5.17,1.13-7.73,2.37-1.35.64-2.65,1.22-3.9,2-1.26.78-2.62,1.41-4.02,1.85-5.36,1.68-11.35.35-16.22-2.42-1.96,3.57-3.43,7.51-3.84,11.7-.17,1.72-.25,3.38-.25,5,0,.52.01,1.04.03,1.55.03.81.06,1.6.13,2.37.12,1.55.31,3.02.57,4.42,1.7,9.12,6.1,14.99,10.64,14.99,2.03,0,3.64-.98,4.89-2.32.51-.53.95-1.12,1.34-1.74.39-.61.73-1.24,1.02-1.86.29-.61.53-1.2.73-1.74.49-1.34.7-2.3.7-2.3,0,0,1.59,2.17,5.19,4.38.05.04.09.07.14.09.23.14.49.29.74.42.25.14.48.29.74.42,1.25.66,2.72,1.28,4.36,1.82.85.29,1.73.55,2.68.78.31.08.64.16.96.22,2.43.51,5.19.83,8.31.83.52,0,1.03-.03,1.55-.07.51-.03,1.02-.08,1.52-.14,1.01-.14,2.02-.35,2.99-.61,1.47-.39,2.91-.94,4.29-1.6.92-.43,1.83-.94,2.71-1.48.89-.55,1.74-1.14,2.58-1.78.83-.65,1.63-1.34,2.41-2.08,3.11-2.93,5.75-6.54,7.78-10.57.49-1,.96-2.03,1.39-3.08.43-1.04.81-2.11,1.14-3.2.35-1.08.64-2.19.88-3.3.26-1.12.46-2.24.61-3.37.23-1.7.35-3.42.35-5.14,0,0-.04,0-.1.01-.13.03-.38.08-.73.17-.39.1-.88.25-1.44.44-.18.07-.38.14-.59.22-.39.16-.81.34-1.24.55-.21.12-.42.22-.64.35-.43.23-.85.51-1.25.82-.6.46-1.18.99-1.67,1.6.09-.3.86-2.73,2.59-5.65,1.16-1.95,2.73-4.1,4.8-5.97,1.25-1.12,2.68-2.15,4.31-2.95.68-.35,1.34-.62,1.98-.86.64-.23,1.26-.43,1.86-.57.46-.1.9-.18,1.31-.23.72-.1,1.41-.16,2.04-.16,2.12,0,3.85.49,5.09,1.01.74.31,1.31.64,1.68.88.33.21.49.35.49.35,0,0-.7.04-1.82.25-.46.09-.96.21-1.53.35-2.52.66-6.02,2.04-8.78,4.89,0,0,.53,3.46-.13,8.8-.22,1.78-.57,3.76-1.12,5.89-.44,1.7-1.01,3.51-1.74,5.37-1.46,3.73-3.55,7.73-6.56,11.75-3.47,4.66-7.82,7.91-12.54,10.01-1.18.52-2.38.98-3.6,1.35-3.66,1.14-7.47,1.67-11.23,1.67-3.37,0-6.69-.42-9.82-1.2-2.35-.57-4.61-1.34-6.69-2.26-1.12-.49-2.21-1.03-3.24-1.61,0,0-.04.08-.1.22-.12.21-.3.56-.57.99-.26.42-.6.94-1,1.46-.69.88-1.55,1.82-2.58,2.54-.61.44-1.29.79-2,1,0,0,4.68,6.02,11.94,9.77,1.31.69,2.72,1.3,4.2,1.78.73.25,1.48.46,2.26.62,1.53.35,3.15.55,4.81.55s3.25-.01,4.79-.05c1.55-.04,3.02-.1,4.44-.18,1.43-.09,2.8-.21,4.12-.35,5.96-.66,10.98-1.98,15.65-4.44.52-.27,1.04-.56,1.55-.86-.17.1-.33.23-.49.4-.48.48-.94,1.17-1.37,1.57-.46.43-.94.85-1.43,1.25-.49.4-1,.79-1.51,1.17-1.03.74-2.11,1.43-3.2,2.07-2.17,1.28-4.45,2.32-6.81,3.2-1.4.53-2.82,1.03-4.28,1.43-3.75,1.07-7.42,1.63-11.01,2.65-.72.21-1.43.44-2.15.69-1.42.51-2.82,1.12-4.23,1.89-7.88,4.38-13.77,11.66-17.54,19.75.18-.23,3.11-4.02,11.7-6.4.1-.03.2-.07.29-.09,0,.01-12.09,16.59-6.13,36.86.78,2.64,1.87,5.35,3.33,8.09.25.46.49.92.76,1.38.53.91,1.11,1.83,1.73,2.76,1.22,1.85,2.64,3.7,4.25,5.56.82.92,1.68,1.86,2.59,2.78.46.47.92.92,1.41,1.39.96.92,1.98,1.85,3.06,2.77.25-3.3.64-6.79,1.37-10.21s1.81-6.77,3.43-9.76c.55-.99,1.14-1.95,1.82-2.85.34-.46.69-.9,1.07-1.33.38-.42.77-.83,1.17-1.24.61-.59,1.24-1.14,1.87-1.69,1.28-1.09,2.62-2.12,3.96-3.15.66-.52,1.33-1.04,1.98-1.56,1.63-1.31,3.25-2.71,4.84-4.16,2.11-1.95,4.15-4.02,6.06-6.22.95-1.09,1.87-2.21,2.76-3.37.44-.57.87-1.16,1.29-1.74.85-1.17,1.64-2.38,2.38-3.62,1.47-2.45,2.73-5,3.73-7.64.01.05.08.47.16,1.2v.05c.04.31.06.7.09,1.13.04.66.06,1.43.06,2.32,0,.79-.03,1.68-.09,2.63-.06.95-.17,1.96-.32,3.04-.16,1.07-.37,2.2-.64,3.38-.17.78-.39,1.59-.62,2.39-.37,1.24-.81,2.5-1.33,3.77-.52,1.28-1.13,2.58-1.85,3.89-.71,1.3-1.52,2.62-2.45,3.93-.31.43-.64.87-.96,1.3,0,0,2.2-1.12,5.23-4.16.91-.91,1.89-2,2.91-3.28.68-.86,1.37-1.81,2.07-2.84.35-.52.7-1.05,1.05-1.63.72-1.13,1.42-2.36,2.11-3.68.69-1.33,1.38-2.76,2.04-4.29.33-.78.65-1.57.96-2.39.64-1.65,1.25-3.42,1.82-5.31,2.56-8.47,4.35-19.35,4.35-33.23,0,0,20.43-6.05,38-23.2,1.35-1.31,2.69-2.71,3.99-4.16.66-.73,1.31-1.47,1.95-2.22,1.91-2.29,3.76-4.72,5.49-7.33,0,0-.03.57-.12,1.51-.01.23-.04.49-.08.77-.05.55-.13,1.17-.23,1.83-.3,2.02-.79,4.44-1.59,6.53-.4,1.05-.88,2.02-1.46,2.8.01,0,3.51-3.47,7.33-8.17,3.72-4.59,7.74-10.34,9.13-15.42-.09.52-.55,2.81-1.6,6.21-.34,1.05-.73,2.23-1.18,3.47-.47,1.26-.99,2.59-1.6,3.99-.21.47-.42.95-.64,1.43-.43.96-.91,1.95-1.42,2.97-.26.51-.52,1.01-.79,1.54-.55,1.03-1.13,2.08-1.77,3.14-.62,1.05-1.3,2.13-2,3.2-1.43,2.16-3.03,4.33-4.83,6.48-1.35,1.6-2.81,3.2-4.37,4.76-3.67,3.63-7.31,6.83-10.76,9.62-3.43,2.78-6.69,5.14-9.59,7.1-.42.29-.82.55-1.21.82-.81.52-1.58,1.01-2.3,1.48-.73.46-1.43.88-2.08,1.29-.99.6-1.9,1.12-2.69,1.57-.53.3-1.03.57-1.47.82-1.78.96-2.78,1.43-2.78,1.43,0,0-.03,1.8-.35,4.8-.44,4.16-1.44,10.66-3.68,17.9h85.76c-.56-.6-1.11-1.2-1.65-1.82-.08-.09-.17-.18-.25-.27-.75-.86-1.51-1.76-2.28-2.67-.06-.08-.13-.16-.2-.23-.81-.99-1.63-2-2.45-3.04h0s.03-.01.09,0c.1,0,.33.03.64.03.17.01.34.01.55.01.4,0,.9-.01,1.47-.05.85-.05,1.86-.16,2.98-.35,2.64-.46,5.89-1.41,9.17-3.34,1.89-1.12,3.76-2.55,5.54-4.4,0,0-.05.01-.12.04-.05.01-.13.04-.23.07-.3.09-.81.21-1.47.34-.22.04-.44.08-.68.12-.62.09-1.35.18-2.16.22-.39.03-.82.04-1.26.04-.6,0-1.24-.03-1.9-.08-2-.17-4.23-.64-6.53-1.61-3.08-1.31-6.27-3.54-9.17-7.22-.31-.4-.61-.83-.88-1.3-.29-.47-.55-.98-.78-1.51-.25-.53-.48-1.11-.69-1.69-.12-.3-.22-.6-.31-.91-.3-.94-.57-1.94-.81-2.98-.47-2.11-.81-4.41-1.05-6.86-.08-.82-.16-1.65-.21-2.48-.21-2.95-.29-6.06-.27-9.21,0-1.34.03-2.71.07-4.06.01-.44.03-.9.04-1.35.04-.9.08-1.8.12-2.69.17-3.58.43-7.06.72-10.32.91-10.15,2.15-17.85,2.15-17.85,0,0-2.5-2.19-5.98-6.21-3.49-4.01-7.98-9.84-11.96-17.14-3.66-6.71-6.88-14.68-8.52-23.59,19.39,14.4,43.38,8.51,52.34,5.58,8.96-2.93,51.89-13.88,70.53,22.82-.57-.51-19.01-16.81-41.49-16.81s-21.64,12.69-60.55,9.51c18.29,17.69,35.79,30.5,59.6,30.5,32.58,0,50.31-22.16,50.31-22.16-6.95-16.91-24.68-28.59-42.99-37.07Zm-144.47-23.85c3.04-5.43,8.83-8.64,14.75-8.14,3.01.25,5.44,1.41,7.33,2.77,2.94,2.13,4.5,4.76,4.72,5.13-.9-.42-2.32-.99-4.14-1.42-1.98-.48-4.44-.79-7.23-.51-5.88.6-9.33,2.86-11.11,4.36-.77.65-1.76,1.01-2.76.96-1.21-.07-2.38-.68-1.56-3.15Zm20.54,33.13c-2.73,4.35-2.43,9.46.68,11.41,1.69,1.07,3.88.96,5.96-.06-5.74,7.99-16.91,12.35-27.73,12.35-2.29,0-4.57-.19-6.78-.59-9.06-33.63,15.04-44.82,21.3-44.82,5.83,0,15.64,2.43,16.98,17.28-3.1-1.8-7.72.16-10.41,4.44Z" fill="#fff"/>
  </g>
</svg>