<?xml version="1.0" encoding="UTF-8"?>
<svg id="Layer_1" data-name="Layer 1" xmlns="http://www.w3.org/2000/svg" viewBox="0 0 1600 450">
  <g>
    <path d="m565.01,251.15c-7.34,5.39-16.4,8.09-27.18,8.09-7.69,0-14.4-1.35-20.13-4.04-5.74-2.69-10.52-6.39-14.37-11.1-3.84-4.7-6.71-10.09-8.6-16.17-1.89-6.08-2.84-12.5-2.84-19.27,0-7.11.95-13.7,2.84-19.79,1.89-6.08,4.7-11.44,8.43-16.09,3.73-4.64,8.4-8.26,14.02-10.84,5.62-2.58,12.16-3.87,19.61-3.87,6.88,0,13.1,1.15,18.67,3.44,5.56,2.3,10.18,5.76,13.85,10.41,3.67,4.64,5.96,10.52,6.88,17.63h17.2c-1.03-9.52-3.9-17.78-8.6-24.77-4.71-6.99-11.07-12.44-19.1-16.34-8.03-3.9-17.66-5.85-28.9-5.85s-20.47,1.89-28.39,5.68c-7.91,3.78-14.34,8.77-19.27,14.97-4.93,6.19-8.58,13.08-10.92,20.65-2.35,7.57-3.53,15.14-3.53,22.71v3.78c0,7,1.15,14.25,3.44,21.76,2.29,7.51,5.91,14.48,10.84,20.9,4.93,6.42,11.44,11.64,19.53,15.66,8.08,4.01,17.86,6.02,29.33,6.02s21.65-2.12,29.85-6.37c8.2-4.24,14.62-9.92,19.27-17.03,4.65-7.11,7.54-14.97,8.69-23.57h-17.2c-1.61,10.21-6.08,18.01-13.42,23.4Z" fill="#fff"/>
    <path d="m646.53,255.79h-3.59l-26.66-76.04h-16.86l32.86,89.81h10.16l-2.25,7.57c-1.15,3.78-2.61,6.82-4.39,9.12-1.78,2.29-4.02,3.93-6.71,4.9-2.7.97-5.99,1.46-9.89,1.46h-13.25v14.8h12.22c6.31,0,11.84-.89,16.6-2.67,4.76-1.78,8.8-4.59,12.13-8.43,3.33-3.84,5.91-8.8,7.74-14.88l30.62-101.68h-16.17l-22.57,76.04Z" fill="#fff"/>
    <path d="m777.6,190.76c-3.9-4.36-8.58-7.8-14.02-10.32-5.45-2.52-11.5-3.78-18.15-3.78s-13.25,1.49-19.1,4.47c-5.85,2.98-10.58,7.6-14.19,13.85-1.25,2.16-2.3,4.54-3.18,7.13v-22.35h-13.07v126.28h16.52v-48.22c3.76,5.73,8.39,9.95,13.94,12.61,5.96,2.87,12.22,4.3,18.75,4.3s12.53-1.26,17.98-3.78c5.45-2.52,10.15-5.96,14.11-10.32,3.96-4.36,7.02-9.4,9.2-15.14,2.18-5.73,3.27-11.81,3.27-18.24v-3.1c0-6.42-1.03-12.5-3.1-18.24-2.06-5.73-5.05-10.78-8.95-15.14Zm-8.26,52.9c-2.52,5.22-6.08,9.29-10.67,12.22-4.59,2.92-9.98,4.39-16.17,4.39-5.39,0-10.44-1.2-15.14-3.61-4.7-2.41-8.49-5.85-11.36-10.32-2.87-4.47-4.3-9.86-4.3-16.17v-7.91c0-6.54,1.4-12.13,4.22-16.77,2.81-4.64,6.56-8.2,11.27-10.67,4.7-2.47,9.81-3.7,15.31-3.7,6.19,0,11.58,1.46,16.17,4.39,4.59,2.92,8.14,6.97,10.67,12.13,2.52,5.16,3.79,11.18,3.79,18.06s-1.26,12.76-3.79,17.98Z" fill="#fff"/>
    <path d="m850.99,177h-.69c-7.69,0-13.99,1.78-18.92,5.33-4.54,3.27-7.97,7.85-10.32,13.69v-49.99h-16.52v125.59h16.52v-52.99c0-7.91,2.21-14.31,6.62-19.18,4.41-4.87,10.29-7.31,17.63-7.31,6.65,0,12.07,2.06,16.26,6.19,4.19,4.13,6.28,9.92,6.28,17.38v55.91h16.52v-52.47c0-13.53-2.81-23.94-8.43-31.23-5.62-7.28-13.94-10.92-24.95-10.92Z" fill="#fff"/>
    <path d="m968.03,183.11c-6.48-4.3-14.71-6.45-24.69-6.45-7.69,0-14.37,1.35-20.04,4.04-5.68,2.7-10.35,6.31-14.02,10.84-3.67,4.53-6.4,9.61-8.17,15.23-1.78,5.62-2.67,11.41-2.67,17.38v3.1c0,5.85.89,11.59,2.67,17.2,1.78,5.62,4.5,10.7,8.17,15.23,3.67,4.53,8.43,8.17,14.28,10.92,5.85,2.75,12.79,4.13,20.82,4.13,7.23,0,13.7-1.2,19.44-3.61,5.73-2.41,10.49-5.91,14.28-10.49,3.78-4.59,6.31-10.04,7.57-16.34h-15.48c-.92,4.24-3.64,7.97-8.17,11.18-4.53,3.21-10.41,4.82-17.63,4.82s-12.56-1.52-17.03-4.56c-4.47-3.04-7.77-7.17-9.89-12.39-1.78-4.38-2.8-9.23-3.09-14.54h72.85v-7.4c0-7.68-1.58-14.91-4.73-21.68-3.16-6.77-7.97-12.3-14.45-16.6Zm-40.95,12.47c4.3-2.98,9.72-4.47,16.26-4.47s11.53,1.32,15.66,3.96c4.13,2.64,7.22,6.34,9.29,11.1,1.32,3.05,2.21,6.46,2.69,10.24h-55.96c.53-3.08,1.33-5.95,2.43-8.6,2.12-5.16,5.33-9.23,9.63-12.21Z" fill="#fff"/>
    <path d="m1023.04,188.1c-4.27,4.52-6.99,10.93-8.17,19.19v-27.54h-13.07v91.87h16.52v-49.72c0-9.17,2.46-16.2,7.4-21.08,4.93-4.87,11.98-7.31,21.16-7.31h5.85v-14.8h-3.1c-11.81,0-20.67,3.13-26.58,9.38Z" fill="#fff"/>
    <path d="m1119.98,224.83h40.77v21.17c-2.98,2.9-6.5,5.46-10.58,7.64-7.4,3.96-15.97,5.94-25.72,5.94-6.88,0-13.22-1.09-19.01-3.27-5.79-2.18-10.81-5.42-15.05-9.72-4.24-4.3-7.54-9.69-9.89-16.17-2.35-6.48-3.53-14.02-3.53-22.62,0-7.57,1.09-14.39,3.27-20.47,2.18-6.08,5.25-11.3,9.2-15.66,3.96-4.36,8.69-7.71,14.19-10.06,5.51-2.35,11.53-3.53,18.06-3.53s12.41,1.18,17.98,3.53c5.56,2.35,10.24,5.85,14.02,10.49,3.78,4.65,6.08,10.47,6.88,17.46h17.2c-.8-9.29-3.67-17.46-8.6-24.52-4.93-7.05-11.47-12.56-19.61-16.52-8.14-3.96-17.44-5.94-27.87-5.94-9.63,0-18.3,1.75-25.98,5.25-7.69,3.5-14.19,8.26-19.53,14.28-5.33,6.02-9.4,12.79-12.22,20.3-2.81,7.51-4.21,15.29-4.21,23.31v3.78c0,9.41,1.55,18.09,4.65,26.06,3.1,7.97,7.48,14.88,13.16,20.73,5.68,5.85,12.47,10.38,20.39,13.59,7.91,3.21,16.74,4.82,26.49,4.82,11.47,0,21.62-2.06,30.45-6.19,8.83-4.13,16.06-9.86,21.68-17.2v-26.49h10.67v-14.11h-67.27v14.11Z" fill="#fff"/>
    <path d="m1280.91,191.54c-4.24-4.53-9.41-8.14-15.48-10.84-6.08-2.69-13.02-4.04-20.82-4.04s-14.74,1.35-20.82,4.04c-6.08,2.7-11.24,6.31-15.48,10.84-4.24,4.53-7.46,9.63-9.63,15.31-2.18,5.68-3.27,11.44-3.27,17.29v3.1c0,5.85,1.06,11.59,3.18,17.2,2.12,5.62,5.27,10.7,9.46,15.23,4.19,4.53,9.32,8.17,15.4,10.92,6.08,2.75,13.13,4.13,21.16,4.13s15.08-1.38,21.16-4.13c6.08-2.75,11.21-6.39,15.4-10.92,4.19-4.53,7.34-9.61,9.46-15.23,2.12-5.62,3.18-11.35,3.18-17.2v-3.1c0-5.85-1.09-11.61-3.27-17.29-2.18-5.68-5.39-10.78-9.63-15.31Zm-7.48,51.53c-2.58,5.16-6.31,9.26-11.18,12.3-4.88,3.04-10.75,4.56-17.63,4.56s-12.76-1.52-17.63-4.56c-4.88-3.04-8.6-7.14-11.18-12.3-2.58-5.16-3.87-10.95-3.87-17.38s1.32-12.39,3.96-17.55c2.64-5.16,6.42-9.23,11.36-12.22,4.93-2.98,10.72-4.47,17.38-4.47s12.59,1.49,17.46,4.47c4.87,2.98,8.63,7.05,11.27,12.22,2.64,5.16,3.96,11.01,3.96,17.55s-1.29,12.21-3.87,17.38Z" fill="#fff"/>
    <path d="m1361.11,182.07c-5.97-2.24-13.65-3.35-23.05-3.35-2.75,0-5.62.03-8.6.09-2.98.06-5.88.17-8.69.34-2.81.17-5.48.37-8,.6v14.45c2.52-.23,5.51-.4,8.95-.52,3.44-.11,7.05-.23,10.84-.34,3.78-.11,7.45-.17,11.01-.17,6.31,0,11.1,1.61,14.36,4.82,3.27,3.21,4.9,7.97,4.9,14.28v2.24h-23.22c-7.91,0-14.68,1.12-20.3,3.36-5.62,2.24-9.89,5.54-12.82,9.89-2.93,4.36-4.39,9.81-4.39,16.34s1.35,11.7,4.04,16.17c2.69,4.47,6.54,7.89,11.53,10.24,4.99,2.35,10.93,3.53,17.81,3.53,6.42,0,11.9-1.15,16.43-3.44,4.53-2.29,8.09-5.65,10.67-10.06,1.24-2.11,2.24-4.48,3.01-7.08v18.18h13.08v-58.15c0-8.6-1.44-15.42-4.3-20.47-2.87-5.05-7.28-8.69-13.25-10.93Zm-2.15,69.51c-2.35,3.38-5.31,5.79-8.86,7.23-3.56,1.44-7.28,2.15-11.18,2.15-6.65,0-11.76-1.55-15.31-4.64-3.56-3.1-5.33-7.17-5.33-12.21s1.78-9.17,5.33-12.39c3.55-3.21,8.66-4.82,15.31-4.82h23.91v10.67c-.23,5.97-1.52,10.64-3.87,14.02Z" fill="#fff"/>
    <path d="m1448.75,192.14v-12.39h-31.66v-27.87h-15.83v27.87h-15.83v12.39h15.83v48.17c0,8.15,1.35,14.6,4.04,19.35,2.69,4.76,6.54,8.12,11.53,10.06,4.99,1.95,10.92,2.92,17.81,2.92h14.11v-14.8h-16.17c-4.93,0-8.75-1.35-11.44-4.04-2.7-2.69-4.04-6.51-4.04-11.44v-50.24h31.66Z" fill="#fff"/>
  </g>
  <g>
    <path d="m365.19,255.82c-.02.09-1.55,9.78-2.12,20.44-1.02,19,1.96,23.01,1.98,23.05,2.07,2.63,4.5,3.9,7.44,3.9,1.06,0,1.84-.17,2.08-.24.93-.35,1.89-.52,2.83-.52,2.65,0,5.16,1.34,6.73,3.69,2.15,3.2,1.61,7.52-1.06,10.31-2.23,2.32-4.6,4.04-6.94,5.33.63.62,1.23,1.18,1.82,1.72h15.16v-57.45c-10.48-1.15-19.49-5.05-27.88-10.69-.01.15-.02.31-.04.46Z" fill="#fff"/>
    <path d="m379.99,189.33c-9.48-2.89-14.55-10.14-16.3-18.07-1.73,6.44-2.6,13.14-2.33,19.3l.11,2.63c4.99,1.22,10.9,2.28,17.16,3.38,5.02.89,9.92,1.76,14.48,2.74v-9.74c-2.03.54-4.09.81-6.19.81-2.32,0-4.65-.35-6.93-1.05Z" fill="#fff"/>
    <path d="m298.83,161.45c3.01.43,5.89,1,8.65,1.67.22-2.91.7-5.74,1.23-8.43,3.61-17.88,14.06-33.57,19.97-41.33,3.97-5.21,8.26-9.77,12.89-13.7-4.64-3.94-10.25-6.73-16.83-7.51-4.37-.51-8.79-.14-13.06.92,6.46,3.33,10.95,9.77,10.88,18.13-1.73-8.08-8.63-13.91-16.46-13.88-2.26.02-4.5.7-7.09,1.57-.26.07-.49.11-.73.14-1.66,1.11-3.25,2.32-4.73,3.63-8.31,7.35-14.08,15.7-18.03,25.11.41-.13.81-.26,1.23-.35,11.31-3,23.97,2.53,29.06,12.95-4.37-5.71-11.17-9.05-17.73-9.1-6.5-.13-11.53,2.5-16.12,6.96-.07.29-.15.57-.24.87-.3,1.16-.58,2.35-.85,3.55.78.04,1.56.19,2.33.46,14.85,5.31,22.21,13.23,25.63,18.34Z" fill="#fff"/>
    <path d="m228.47,216.25l.67-.12c.96-4.08,2.43-7.94,4.39-11.42,0-.07,0-.14-.01-.22-.74.22-1.52.33-2.31.33-.67,0-1.34-.08-2.02-.26-3.64-.92-6.19-4.2-6.19-7.95,0-8.23.77-16.98,9.47-25.86-.28.08-.45.14-.51.16-.92.33-1.87.49-2.79.49-2.64,0-5.17-1.29-6.74-3.57-2.13-3.09-1.84-7.25.64-10.08.44-.51,11.17-12.53,29.58-12.53,3.25,0,6.3.37,9.13.95.65-3.55,1.35-6.66,2-9.14.11-.46.26-.92.38-1.39.04-.44.15-.87.36-1.3.78-2.71,1.68-5.33,2.67-7.86h-71.09v103.79c1.48-1.06,3.01-2.08,4.63-3.07,9.51-5.78,20.79-9.68,27.75-10.97Z" fill="#fff"/>
    <path d="m240.03,302.74c-6.4-3.59-10.46-8.57-11.11-9.41-.07-.09-.13-.18-.2-.27-2.92-.57-5.68-2.19-7.95-4.69-3.69-4.06-6-10.23-6.66-17.32-3.44,1.01-6.97,1.65-10.57,1.92-1.23.09-2.48.14-3.72.14s-2.48-.06-3.72-.15v50.55h31.02c-.27-1.59-.08-3.28.66-4.85,3.04-6.5,7.21-11.9,12.26-15.91Z" fill="#fff"/>
    <path d="m202.94,264.79c4.34-.33,8.11-1.28,11.17-2.38.01-.15.02-.32.03-.47.73-7.47,4.42-13.92,8.34-18.83-22.15,2.71-35.46,15.37-36.27,16.16,13.83-17.69,36.34-24.71,41.82-26.21-.27-2.77-.33-5.55-.16-8.3-5.95,1.44-15.08,4.73-22.88,9.47-14.06,8.54-21.41,20.08-24.63,25.99,3.28,1.66,10.26,4.68,19.45,4.68,1.02,0,2.05-.04,3.12-.11Z" fill="#fff"/>
    <path d="m405.42,211.51c-11.44-5.3-36.63-7.26-50.61-11.64-.31-.09-.63-.19-.93-.3-.74-2.76-.97-6.13-.73-8.66v-.46c-.55-15.77,5.49-36.11,16.21-48.2,2.63-2.97,13.75-13.01,29.06-13.01,3.94,0,2.47,1.95,2.47,1.95,0,0-4.16,6.25-4.93,7.59-1.62,2.81-4.15,6.92-5.34,9.92-2.87,6.23-2.12,12.5,1.84,12.5.45,0,.95-.08,1.5-.26.7-.23,1.41-.51,1.82-.74,3.73-2.02-.48,3.02-4.26,3.02s-5.91-2.64-6.24-6.23c-.11-1.32.01-2.78.37-4.28,1.22-5.01,2.55-7.39,5.14-11.89,1.54-3.14,5.59-7.78,5.11-8.19-.04-.03-.11-.04-.23-.04-1.34,0-7.78,2.24-11.43,6-5.77,4.88-9.71,11-11.75,17.86-.36,1.23-.68,2.48-.91,3.76-1.57,8.26,1.12,18.31,10.8,21.26.42.13.83.24,1.25.33-.54-1.51-.8-3.03-.82-4.55-.06-3.94,1.73-7.76,4.73-10.09-2.51,4.42-1.79,9.71,1.79,12.68.73.57,1.58,1,2.63,1.46,8.25-2.75,14.87-11.64,18.84-18.05,6.11-9.84,9.12-23.25,8.7-34.99-3.89,3.04-9.07,4.15-14.33,2.02,4.03.26,7.82-1.44,10.02-4.04,2.41-2.8,2.72-5.47,2.42-9.19-.01-.3.01-.6.05-.88-2.38-8.34-7.19-15.95-15.39-20.59-5.66-3.21-12.19-4.71-18.75-4.71-4.79,0-9.59.8-14.08,2.32-1.1.38-2.17.77-3.22,1.19,8.69,5.51,14.16,14.49,13.75,25.54-.18,4.16-1.29,8.19-3.17,11.72,3.77-11.26-.63-23.82-10.47-29.66-2.72-1.61-5.83-2.48-9.27-3.24-8.62,4.93-15.7,11.51-21.86,19.59-3.46,4.55-6.76,9.58-9.66,14.89,9.07-2.32,18.56-.58,26.18,6.12,3.11,2.75,5.54,6.16,7.1,9.84-6.36-10.01-18.89-14.53-29.62-10.57-3.11,1.14-5.86,3.14-8.75,5.47-1.61,4.06-2.87,8.18-3.69,12.24-.61,3-1.13,6.09-1.18,9.18,9.74,3.5,16.84,14.46,19.77,19.72.92,1.64,1.44,2.73,1.5,2.86-.44-.36-11.53-9.41-20.83-13.67-2.62-1.02-5.4-1.94-8.34-2.74-4.31-1.17-8.96-2.08-14-2.58,0,0-4.1-11.4-23.23-18.23.42.29,7.12,4.92,7.12,11.7,0,0-10.04-9.12-24.93-9.12s-23.41,9.73-23.41,9.73c0,0,5.39-1.92,13.07-1.92,5.65,0,12.56,1.04,19.45,4.65,0,0-13.83,1.83-21.89,9.12-8.05,7.3-8.67,13.84-8.67,21.59,0,0,9.28-17.02,22.19-17.02,0,0-6.08,5.04-9.48,13.08.23-.31.45-.62.69-.92-3.85,11.7-1.98,18.4-1.39,20.07,0,0,5.92-18.71,19.15-24.48,0,0-5.62,9.28-3.35,17.95,0,0,5.52-12.43,15.91-16.88,0,0-6.95,6.89-9.98,13.68-2.88,6.46-4.18,11.48-6.46,11.37-2.36-.12-4.48-1.3-5.89-3.08-.72,1.59-1.25,2.97-1.56,3.94-1.09,3.36-4.19,5.64-7.71,5.69h-.11c-2.32,0-4.45-.97-5.97-2.6-.5,1.96-.85,3.95-1.06,5.97-.11,1.15-.18,2.31-.22,3.46-.09,4.44.47,8.88,1.62,12.98,0,0-5.67,4.06-10.13,10.33.69.33,1.39.61,2.14.73,1.64.29,3.35.14,4.97-.24,1.34-.32,2.55-.96,3.86-1.45,3.37-1.22,6.96-2.13,10.56-1.91,3.39.21,7.21,1.28,8.72,4.62-.16-.35-1.75-.66-2.07-.75-1.67-.47-3.43-.71-5.16-.64-2.29.1-4.07.89-6.09,1.87-1.07.5-2.09.96-3.08,1.58-1,.62-2.06,1.11-3.17,1.46-4.23,1.32-8.95.28-12.8-1.91-1.55,2.81-2.71,5.92-3.03,9.22-.13,1.35-.19,2.67-.19,3.94,0,.41.01.82.02,1.22.02.64.05,1.26.1,1.87.09,1.22.25,2.38.45,3.49,1.34,7.19,4.81,11.82,8.39,11.82,1.6,0,2.87-.77,3.86-1.83.4-.42.75-.88,1.06-1.38.31-.48.57-.97.8-1.47.23-.48.42-.94.57-1.38.39-1.06.55-1.82.55-1.82,0,0,1.25,1.71,4.09,3.46.04.03.07.05.11.07.18.11.39.23.58.33.19.11.38.23.58.33.99.52,2.14,1.01,3.44,1.44.67.23,1.36.43,2.11.62.25.06.5.12.76.17,1.92.4,4.09.66,6.56.66.41,0,.81-.02,1.22-.05.4-.02.8-.06,1.2-.11.8-.11,1.59-.28,2.36-.48,1.16-.31,2.3-.74,3.39-1.26.73-.34,1.45-.74,2.13-1.17.7-.43,1.37-.9,2.03-1.41.66-.51,1.28-1.06,1.9-1.64,2.45-2.31,4.54-5.16,6.14-8.33.39-.79.76-1.6,1.1-2.43.34-.82.64-1.66.9-2.52.28-.85.5-1.72.7-2.61.21-.88.36-1.76.48-2.66.18-1.34.28-2.7.28-4.05,0,0-.03,0-.08.01-.1.02-.3.06-.57.13-.31.08-.7.19-1.14.35-.14.05-.3.11-.46.17-.31.12-.64.27-.97.43-.16.09-.33.17-.5.28-.34.18-.67.4-.99.65-.47.36-.93.78-1.31,1.26.07-.24.68-2.15,2.04-4.45.91-1.54,2.15-3.23,3.79-4.71.99-.88,2.11-1.69,3.4-2.33.53-.28,1.06-.49,1.56-.68.5-.18,1-.34,1.47-.45.36-.08.71-.14,1.04-.18.56-.08,1.11-.12,1.61-.12,1.67,0,3.04.39,4.01.8.58.25,1.04.5,1.32.7.26.16.39.28.39.28,0,0-.55.03-1.44.19-.36.07-.76.16-1.21.28-1.99.52-4.75,1.61-6.93,3.86,0,0,.42,2.73-.1,6.94-.17,1.41-.45,2.97-.88,4.65-.35,1.34-.8,2.77-1.37,4.24-1.15,2.94-2.8,6.09-5.17,9.27-2.74,3.67-6.17,6.24-9.89,7.89-.93.41-1.88.77-2.84,1.07-2.88.9-5.89,1.31-8.86,1.31-2.66,0-5.27-.33-7.75-.94-1.86-.45-3.63-1.06-5.27-1.79-.88-.39-1.74-.81-2.55-1.27,0,0-.03.06-.08.17-.09.16-.24.44-.45.78-.21.33-.47.74-.79,1.15-.54.7-1.22,1.44-2.03,2-.48.35-1.02.63-1.58.79,0,0,3.69,4.75,9.42,7.71,1.04.54,2.14,1.03,3.31,1.41.57.19,1.17.36,1.79.49,1.21.28,2.48.43,3.8.43s2.57-.01,3.78-.04c1.22-.03,2.38-.08,3.5-.14,1.13-.07,2.21-.16,3.25-.28,4.7-.52,8.66-1.56,12.34-3.5.41-.22.82-.44,1.22-.68-.13.08-.26.18-.39.32-.38.38-.74.92-1.08,1.24-.36.34-.74.67-1.13.99-.39.32-.79.63-1.19.92-.81.58-1.66,1.13-2.52,1.63-1.71,1.01-3.51,1.83-5.37,2.52-1.11.42-2.23.81-3.38,1.13-2.96.84-5.85,1.28-8.68,2.09-.56.16-1.13.35-1.69.54-1.12.4-2.23.88-3.33,1.49-6.22,3.46-10.86,9.19-13.83,15.58.14-.18,2.45-3.17,9.22-5.05.08-.02.15-.05.23-.07,0,.01-9.53,13.08-4.83,29.07.62,2.08,1.48,4.22,2.63,6.38.19.36.39.73.6,1.09.42.72.87,1.45,1.36,2.18.96,1.46,2.08,2.91,3.36,4.38.65.73,1.32,1.47,2.04,2.2.36.37.73.73,1.11,1.1.76.73,1.56,1.46,2.41,2.19.19-2.61.5-5.36,1.08-8.05.57-2.7,1.43-5.34,2.71-7.7.43-.78.9-1.54,1.44-2.25.27-.36.54-.71.84-1.05.3-.33.61-.66.92-.97.48-.46.97-.9,1.48-1.33,1.01-.86,2.06-1.67,3.12-2.48.52-.41,1.05-.82,1.56-1.23,1.28-1.04,2.57-2.13,3.82-3.28,1.66-1.54,3.27-3.17,4.78-4.9.75-.86,1.48-1.74,2.18-2.66.35-.45.69-.91,1.02-1.37.67-.92,1.29-1.88,1.88-2.85,1.16-1.93,2.15-3.94,2.94-6.02.01.04.06.37.12.94v.04c.03.25.05.55.07.89.03.52.05,1.13.05,1.83,0,.63-.02,1.32-.07,2.07-.05.75-.13,1.55-.26,2.4-.12.84-.29,1.73-.5,2.67-.13.62-.31,1.25-.49,1.89-.29.97-.64,1.97-1.05,2.98-.41,1.01-.89,2.03-1.46,3.07-.56,1.03-1.2,2.06-1.93,3.1-.25.34-.5.69-.76,1.03,0,0,1.73-.88,4.12-3.28.72-.72,1.49-1.58,2.3-2.59.53-.68,1.08-1.43,1.63-2.24.28-.41.55-.83.83-1.28.56-.89,1.12-1.86,1.66-2.9.54-1.05,1.09-2.18,1.61-3.39.26-.62.51-1.24.76-1.89.5-1.3.99-2.7,1.44-4.19,2.02-6.68,3.43-15.26,3.43-26.21,0,0,16.11-4.77,29.97-18.3,1.07-1.04,2.12-2.13,3.15-3.28.52-.57,1.04-1.16,1.54-1.75,1.51-1.81,2.97-3.72,4.33-5.78,0,0-.02.45-.09,1.19-.01.18-.03.39-.06.61-.04.43-.1.92-.18,1.45-.24,1.59-.63,3.5-1.25,5.15-.32.83-.7,1.59-1.15,2.21.01,0,2.77-2.74,5.78-6.44,2.93-3.62,6.11-8.16,7.2-12.16-.07.41-.43,2.22-1.26,4.89-.27.83-.57,1.75-.93,2.74-.37,1-.78,2.04-1.26,3.15-.16.37-.33.75-.5,1.13-.34.76-.72,1.54-1.12,2.34-.21.4-.41.8-.63,1.21-.43.81-.89,1.64-1.4,2.47-.49.83-1.03,1.68-1.58,2.52-1.13,1.7-2.39,3.42-3.81,5.11-1.07,1.26-2.22,2.52-3.45,3.76-2.89,2.86-5.77,5.39-8.49,7.58-2.71,2.2-5.27,4.05-7.56,5.6-.33.23-.65.43-.95.65-.64.41-1.24.8-1.82,1.17-.57.36-1.13.7-1.64,1.02-.78.47-1.5.88-2.12,1.24-.42.24-.81.45-1.16.65-1.41.76-2.2,1.13-2.2,1.13,0,0-.02,1.42-.28,3.79-.35,3.28-1.14,8.4-2.9,14.12h67.63c-.44-.47-.87-.94-1.3-1.44-.06-.07-.13-.14-.2-.22-.6-.68-1.19-1.39-1.8-2.1-.05-.06-.1-.12-.15-.18-.64-.78-1.28-1.58-1.93-2.4h0s.02-.01.07,0c.08,0,.26.02.5.02.13.01.27.01.43.01.32,0,.71-.01,1.16-.04.67-.04,1.47-.12,2.35-.28,2.08-.36,4.65-1.11,7.23-2.64,1.49-.88,2.97-2.01,4.37-3.47,0,0-.04.01-.09.03-.04.01-.1.03-.18.05-.24.07-.64.16-1.16.27-.17.03-.35.06-.53.09-.49.07-1.07.14-1.7.17-.31.02-.65.03-1,.03-.47,0-.97-.02-1.5-.06-1.58-.13-3.34-.5-5.15-1.27-2.43-1.04-4.95-2.79-7.23-5.69-.25-.32-.48-.66-.7-1.03-.23-.37-.43-.77-.62-1.19-.2-.42-.38-.87-.54-1.33-.09-.24-.17-.47-.25-.72-.24-.74-.45-1.53-.64-2.35-.37-1.66-.64-3.48-.83-5.41-.06-.65-.12-1.3-.16-1.96-.16-2.33-.23-4.78-.22-7.26,0-1.06.02-2.13.05-3.2.01-.35.02-.71.03-1.07.03-.71.06-1.42.09-2.12.13-2.82.34-5.57.56-8.14.72-8,1.69-14.08,1.69-14.08,0,0-1.97-1.72-4.72-4.89-2.75-3.16-6.29-7.76-9.43-13.51-2.88-5.29-5.43-11.57-6.72-18.6,15.29,11.36,34.21,6.71,41.28,4.4,7.07-2.31,40.92-10.95,55.62,18-.45-.4-14.99-13.26-32.72-13.26s-17.06,10-47.75,7.5c14.43,13.95,28.23,24.05,47.01,24.05,25.69,0,39.68-17.47,39.68-17.47-5.48-13.34-19.47-22.54-33.9-29.23Zm-113.94-18.81c2.4-4.28,6.97-6.81,11.64-6.42,2.37.2,4.29,1.11,5.78,2.19,2.32,1.68,3.55,3.76,3.72,4.04-.71-.33-1.83-.78-3.26-1.12-1.56-.38-3.5-.63-5.71-.4-4.64.47-7.36,2.26-8.76,3.44-.61.51-1.39.8-2.18.76-.95-.05-1.88-.53-1.23-2.48Zm16.2,26.12c-2.15,3.43-1.92,7.46.53,9,1.33.84,3.06.76,4.7-.05-4.52,6.3-13.34,9.74-21.87,9.74-1.81,0-3.6-.15-5.35-.46-7.14-26.52,11.86-35.35,16.8-35.35,4.6,0,12.33,1.92,13.39,13.63-2.44-1.42-6.08.12-8.21,3.5Z" fill="#fff"/>
  </g>
</svg>