<svg width="219" height="219" viewBox="0 0 219 219" fill="none" xmlns="http://www.w3.org/2000/svg">
<rect width="219" height="219" rx="60" fill="#38F8AE"/>
<path d="M100 105.85C100 112.008 95.01 117 88.8546 117H70.1454C63.99 117 59 112.008 59 105.85L59 66.1496C59 59.9918 63.99 55 70.1454 55L88.8546 55C95.01 55 100 59.9919 100 66.1496L100 105.85Z" fill="#0C0C0C"/>
<path d="M106 87.1454C106 80.99 111.233 76 117.689 76H148.311C154.767 76 160 80.99 160 87.1454V105.855C160 112.01 154.767 117 148.311 117H117.689C111.233 117 106 112.01 106 105.855V87.1454Z" fill="#0C0C0C"/>
<path d="M148.311 123H70.6891C64.2334 123 59 127.99 59 134.145V152.855C59 159.01 64.2334 164 70.6891 164H148.311C154.767 164 160 159.01 160 152.855V134.145C160 127.99 154.767 123 148.311 123Z" fill="#0C0C0C"/>
</svg>
