<svg baseProfile="basic" xmlns="http://www.w3.org/2000/svg" viewBox="0 0 64 64"><path fill="#FFF" d="M39.4 29.5l-6.1-6.1-6.1-6.1c-.6-.6-1.3-.9-2.1-.9s-1.5.3-2.1.9l-7.9 7.9L7.3 33l-2.5-2.5L2.3 28c-.4-.4-1-.5-1.5-.3-.4.3-.8.7-.8 1.3v27.2c0 .4.2.7.4 1 .3.3.6.4 1 .4h27.2c.6 0 1.1-.4 1.2-.8.2-.5.1-1-.3-1.5l-3-3-3-3 7.9-7.9 7.9-7.9c.6-.6.9-1.3.9-2.1s-.2-1.3-.8-1.9z"/><path fill="#F9943C" d="M36.6 53.4c-.7 0-1.5-.3-2-.8-1.1-1.1-1.1-3 0-4.1l17.7-17.7c1.1-1.1 3-1.1 4.1 0l1.9 1.9V12.1H37.6l2 2c1.1 1.1 1.1 3 0 4.1-1.1 1.1-3 1.1-4.1 0l-6.9-6.9c-.8-.8-1.1-2.1-.6-3.2.4-1.1 1.5-1.8 2.7-1.8h30.5c1.6 0 2.9 1.3 2.9 2.9v30.5c0 1.2-.7 2.2-1.8 2.7-1.1.4-2.3.2-3.2-.6L54.3 37 38.6 52.5c-.5.6-1.3.9-2 .9z"/></svg>