<svg xmlns="http://www.w3.org/2000/svg" fill="none" height="48" width="128" viewBox="0 0 256 96">
  <rect width="255" height="95" x=".5" y=".5" fill="#fff" stroke="#ECF0EE" rx="7.5" />
  <path fill="#28AE5B" d="m56.5 16 4.1 8.3 9.2 1.4-6.6 6.5 1.5 9.1-8.2-4.3-8.2 4.3 1.5-9.1-6.6-6.5 9.2-1.4 4.1-8.3Z" />
  <path fill="#3F3F3F"
    d="M82.7 40V20.4h7c1.5 0 2.7.2 3.7.7 1 .6 1.8 1.3 2.3 2.2.5 1 .8 2 .8 3.2 0 1.2-.3 2.3-.8 3.2-.5.9-1.3 1.6-2.3 2.1-1 .5-2.2.8-3.8.8h-5.3V30h5c1 0 1.8-.1 2.4-.4.6-.3 1-.7 1.4-1.2a4 4 0 0 0 .4-1.9 4 4 0 0 0-.5-2c-.2-.5-.7-.9-1.3-1.2-.6-.2-1.4-.4-2.4-.4h-3.7V40h-3Zm9.7-8.9 4.8 8.9h-3.4l-4.7-8.9h3.3Zm13.6 9.2c-1.5 0-2.7-.3-3.8-1-1-.6-1.8-1.4-2.4-2.6a9 9 0 0 1-.8-4 9 9 0 0 1 .8-4c.6-1.1 1.4-2 2.4-2.7a7.2 7.2 0 0 1 6-.6 5.9 5.9 0 0 1 3.6 3.7c.3 1 .5 2 .5 3.4v1h-11.7v-2.1h8.9c0-.8-.2-1.5-.5-2a3.5 3.5 0 0 0-3.2-2c-.8 0-1.5.2-2.1.6a4 4 0 0 0-1.4 1.6c-.3.6-.5 1.3-.5 2v1.7c0 1 .2 1.8.6 2.5.3.7.8 1.2 1.4 1.6.7.4 1.4.5 2.2.5.6 0 1 0 1.5-.2l1.2-.7c.3-.3.5-.7.7-1.2l2.7.5a5 5 0 0 1-1.1 2.1c-.6.6-1.3 1-2.1 1.4-.9.3-1.8.5-3 .5Zm21.7-15L122.3 40h-3l-5.4-14.7h3l3.8 11.3h.2l3.7-11.3h3Zm2.7 14.7V25.3h2.8V40h-2.8Zm1.4-17c-.5 0-1-.2-1.3-.5-.3-.3-.5-.7-.5-1.2s.2-.9.5-1.2c.4-.4.8-.5 1.3-.5s1 .1 1.3.5c.3.3.5.7.5 1.2s-.2.9-.5 1.2c-.4.3-.8.5-1.3.5Zm11.6 17.3c-1.4 0-2.7-.3-3.7-1-1-.6-1.9-1.4-2.4-2.6a9 9 0 0 1-.9-4 9 9 0 0 1 .9-4c.5-1.1 1.3-2 2.3-2.7a7.2 7.2 0 0 1 6-.6 5.9 5.9 0 0 1 3.6 3.7c.4 1 .6 2 .6 3.4v1H138v-2.1h9c0-.8-.2-1.5-.5-2a3.5 3.5 0 0 0-3.2-2c-.9 0-1.6.2-2.2.6a4 4 0 0 0-1.3 1.6c-.4.6-.5 1.3-.5 2v1.7c0 1 .2 1.8.5 2.5.4.7.8 1.2 1.5 1.6.6.4 1.3.5 2.2.5.5 0 1 0 1.4-.2.5-.2.9-.4 1.2-.7.3-.3.6-.7.8-1.2l2.7.5a5 5 0 0 1-1.2 2.1c-.6.6-1.3 1-2.1 1.4-.8.3-1.8.5-2.9.5Zm12.7-.3-4.3-14.7h3l2.8 10.8h.2l2.9-10.8h3l2.8 10.7h.1l2.9-10.7h3L168 40h-2.9l-3-10.6h-.2L159 40h-2.9Zm32.4.3c-1.3 0-2.6-.3-3.6-1-1-.6-1.8-1.5-2.4-2.6a8.8 8.8 0 0 1-.8-4c0-1.5.3-2.9.8-4a6.4 6.4 0 0 1 6-3.6c1.4 0 2.6.3 3.7 1 1 .6 1.8 1.5 2.3 2.6.6 1.1.9 2.5.9 4s-.3 2.9-.9 4a6.4 6.4 0 0 1-6 3.6Zm0-2.4c1 0 1.7-.2 2.3-.7.6-.5 1-1.1 1.3-2 .3-.7.4-1.6.4-2.5 0-1-.1-1.8-.4-2.6-.3-.8-.7-1.4-1.3-1.9-.6-.5-1.4-.7-2.3-.7-.9 0-1.6.2-2.2.7-.6.5-1 1.1-1.3 2-.3.7-.4 1.6-.4 2.5 0 1 .1 1.8.4 2.6.3.8.7 1.4 1.3 1.9.6.5 1.3.7 2.2.7Zm13-6.6V40h-2.9V25.3h2.8v2.4h.1c.4-.8.9-1.4 1.6-2a5 5 0 0 1 2.8-.6c1 0 1.9.2 2.6.6.8.4 1.4 1 1.8 1.9.4.8.6 1.8.6 3V40H208v-9c0-1-.3-2-.8-2.5a3 3 0 0 0-2.3-1c-.7 0-1.3.2-1.8.5s-.9.7-1.2 1.3c-.3.5-.4 1.2-.4 2Z" />
  <path fill="#28AE5B"
    d="M27 52a1 1 0 0 0-1 1v26a1 1 0 0 0 1 1h74a1 1 0 0 0 1-1V53a1 1 0 0 0-1-1H27Zm4 4h2a1 1 0 0 1 1 1v6a1 1 0 0 0 1 1h6a1 1 0 0 1 1 1v3h3a1 1 0 0 1 1 1v3h3a1 1 0 0 1 1 1v2a1 1 0 0 1-1 1h-2a1 1 0 0 1-1-1v-3h-3a1 1 0 0 1-1-1v-3h-7a1 1 0 0 0-1 1v6a1 1 0 0 1-1 1h-2a1 1 0 0 1-1-1V57a1 1 0 0 1 1-1Zm12 0h3a1 1 0 0 1 1 1v3a1 1 0 0 1-1 1h-3a1 1 0 0 1-1-1v-3a1 1 0 0 1 1-1Zm12.8 0h2.4a1 1 0 0 1 .8.5l5 7.8 5-7.8a1 1 0 0 1 .8-.5h2.4a1 1 0 0 1 .8 1.5l-6.8 10.8a1 1 0 0 0-.2.6V75a1 1 0 0 1-1 1h-2a1 1 0 0 1-1-1v-6.1c0-.2 0-.4-.2-.6L55 57.5a1 1 0 0 1 .8-1.5ZM83 56h14a1 1 0 0 1 1 1v2a1 1 0 0 1-1 1H82v12h15a1 1 0 0 1 1 1v2a1 1 0 0 1-1 1H83a1 1 0 0 1-1-1v-3h-3a1 1 0 0 1-1-1V61a1 1 0 0 1 1-1h3v-3a1 1 0 0 1 1-1Zm24 0a1 1 0 0 0-1 1v18a1 1 0 0 0 1 1h2a1 1 0 0 0 1-1V59.6l9.2 15.9c.2.3.5.5.8.5h5a1 1 0 0 0 1-1V57a1 1 0 0 0-1-1h-2a1 1 0 0 0-1 1v15.4l-9.2-15.9a1 1 0 0 0-.8-.5h-5Zm29 0a1 1 0 0 0-1 1v3h12v-3a1 1 0 0 0-1-1h-10Zm11 4v12h3a1 1 0 0 0 1-1V61a1 1 0 0 0-1-1h-3Zm0 12h-12v3a1 1 0 0 0 1 1h10a1 1 0 0 0 1-1v-3Zm-12 0V60h-3a1 1 0 0 0-1 1v10a1 1 0 0 0 1 1h3Zm21-16a1 1 0 0 0-1 1v6a1 1 0 0 0 1 1h2a1 1 0 0 0 1-1v-3h4v15a1 1 0 0 0 1 1h2a1 1 0 0 0 1-1V60h4v3a1 1 0 0 0 1 1h2a1 1 0 0 0 1-1v-6a1 1 0 0 0-1-1h-18Zm27 0a1 1 0 0 0-1 1v18a1 1 0 0 0 1 1h2a1 1 0 0 0 1-1V63.4l5.5 12a1 1 0 0 0 1 .6h3a1 1 0 0 0 1-.6l5.5-12V75a1 1 0 0 0 1 1h2a1 1 0 0 0 1-1V57a1 1 0 0 0-1-1h-3.4a1 1 0 0 0-.9.6L194 71.2l-6.7-14.6a1 1 0 0 0-1-.6H183Zm32 0a1 1 0 0 0-1 1v3h15a1 1 0 0 0 1-1v-2a1 1 0 0 0-1-1h-14Zm-1 4h-3a1 1 0 0 0-1 1v14a1 1 0 0 0 1 1h18a1 1 0 0 0 1-1v-2a1 1 0 0 0-1-1h-14a1 1 0 0 1-1-1v-3h7a1 1 0 0 0 1-1v-2a1 1 0 0 0-1-1h-7v-4Zm-38 12a1 1 0 0 0-1 1v2a1 1 0 0 0 1 1h2a1 1 0 0 0 1-1v-2a1 1 0 0 0-1-1h-2Z" />
</svg>