<svg width="587" height="109" viewBox="0 0 587 109" fill="none" xmlns="http://www.w3.org/2000/svg">
<path d="M416.018 65.1693C416.018 58.6767 417.247 51.9618 419.279 46.6866C421.311 41.3098 424.157 36.7447 427.815 32.9912C431.575 29.1362 436.097 26.1942 441.381 24.1652C446.665 22.0348 452.559 20.9697 459.062 20.9697C465.464 20.9697 471.205 21.9841 476.286 24.0131C481.468 26.042 485.838 28.9333 489.394 32.6868C493.053 36.3389 495.48 40.8026 497.411 46.0779C499.342 51.2517 500.125 57.7123 500.125 64.1035V72.0162H438.332C438.512 75.6461 439.001 76.6224 439.979 79.5515C441.096 82.1892 442.794 84.1907 444.521 86.0168C446.35 87.8428 448.484 89.2631 450.923 90.2776C453.362 91.1906 456.055 91.6471 459.002 91.6471C461.237 91.6471 462.961 91.2679 465.099 90.8862C467.123 90.5248 468.829 89.8034 470.785 88.827C472.757 87.5858 473.89 86.5389 475.186 84.9215C477.142 82.4806 477.775 80.9908 478.588 79.0633H500.125C497.686 87.9907 492.433 95.5021 485.219 100.777C478.105 105.951 469.468 108.842 459.002 108.842C452.498 108.842 446.452 107.524 441.168 105.495C435.884 103.364 431.362 100.372 427.602 96.5166C423.944 92.6616 421.099 88.0964 419.066 82.8212C417.034 77.5459 416.018 71.662 416.018 65.1693ZM438.332 57.9723H478.588C478.283 54.9289 478.166 52.1898 477.048 49.7551C476.032 47.3203 474.66 45.2407 472.933 43.5161C471.307 41.7915 469.325 40.4726 466.988 39.5596C464.651 38.6466 462.009 38.1901 459.062 38.1901C456.115 38.1901 453.473 38.6466 451.136 39.5596C448.9 40.4726 446.868 41.7915 445.039 43.5161C443.311 45.2407 441.889 47.3203 440.771 49.7551C439.653 52.1898 438.84 54.9289 438.332 57.9723Z" fill="white"/>
<path d="M325.043 108.843V0H347.048V108.843H325.043Z" fill="white"/>
<path d="M362.831 76.3164V38.8683H353.049V20.9709H362.831V0.00121459H384.656V20.9709H413.062V38.8683H384.656V75.5383C384.656 78.3396 384.967 80.7259 385.591 82.6972C386.214 84.5648 387.202 86.0692 388.553 87.2105C389.904 88.248 391.567 89.0262 393.541 89.5449C395.516 89.9599 397.854 90.1674 400.556 90.1674C402.323 90.1674 404.246 90.1155 406.324 90.0118C408.403 89.8043 410.776 89.493 413.062 89.078V106.82C409.425 107.546 405.856 108.065 402.739 108.376C399.621 108.687 396.711 108.843 394.009 108.843C388.709 108.843 384.084 108.22 380.135 106.975C376.289 105.73 373.068 103.811 370.47 101.217C367.871 98.5195 365.949 95.0957 364.702 90.9456C363.455 86.7955 362.831 81.9191 362.831 76.3164Z" fill="white"/>
<path d="M497.228 108.954L527.087 64.9061L497.081 20.9709L523.408 21.1272L540.84 49.929L560.405 21.1272L587 20.9709L554.593 64.9061L587 108.844L560.405 109L540.84 81.8827L523.408 108.954H497.228Z" fill="white"/>
<path d="M177.701 108.604C172.435 108.604 167.584 107.679 163.15 105.83C158.808 103.98 155.02 101.437 151.787 98.2004V108.842H131L131 0H155.113L155.112 28.4265C158.161 26.0221 161.579 24.1725 165.367 22.8779C169.155 21.5832 173.266 20.9359 177.701 20.9359C185.461 20.9359 192.482 22.9241 198.764 26.9006C205.046 30.7846 210.035 36.0559 213.731 42.7142C217.518 49.3725 219.019 56.7245 219.019 64.7699C219.019 72.8154 217.518 80.1674 213.731 86.8257C210.035 93.3915 205.046 98.6628 198.764 102.639C192.482 106.616 185.461 108.604 177.701 108.604ZM174.929 87.3806C178.994 87.3806 182.689 86.3633 186.015 84.3288C189.341 82.2943 191.974 79.5663 193.914 76.1446C195.947 72.723 196.963 68.9314 196.963 64.7699C196.963 60.6085 195.947 56.8169 193.914 53.3953C191.974 49.9736 189.341 47.2455 186.015 45.2111C182.689 43.1766 178.994 42.1593 174.929 42.1593C170.864 42.1593 167.169 43.1766 163.843 45.2111C160.517 47.2455 157.838 49.9736 155.805 53.3953C153.865 56.8169 152.895 60.6085 152.895 64.7699C152.895 68.9314 153.865 72.723 155.805 76.1446C157.838 79.5663 160.517 82.2943 163.843 84.3288C167.169 86.3633 170.864 87.3806 174.929 87.3806Z" fill="white"/>
<path d="M267.03 108.842C259.309 108.842 252.136 106.975 245.81 102.972C239.485 98.9695 234.416 93.6636 230.602 87.0546C226.881 80.3525 225.021 72.8854 225.021 64.787C225.021 56.6886 226.881 49.3553 230.602 42.6532C234.416 35.9511 239.485 30.6452 245.81 26.7357C252.136 22.733 259.309 20.9697 267.03 20.9697C272.425 20.9697 277.205 21.7091 281.67 23.6639C286.134 25.5256 289.948 28.132 293.111 31.483V20.9697H313.04V108.844H293.111V98.2248C289.948 101.576 286.134 104.229 281.67 106.184C277.205 108.045 272.425 108.842 267.03 108.842ZM269.81 87.6131C273.902 87.6131 277.623 86.5892 280.972 84.5414C284.321 82.4935 286.972 79.7475 288.925 76.3034C290.971 72.8592 291.995 69.0427 291.995 64.8539C291.995 60.6651 290.971 56.8486 288.925 53.4045C286.972 49.9604 284.321 47.2143 280.972 45.1665C277.623 43.1186 273.902 42.0947 269.81 42.0947C265.717 42.0947 261.996 43.1186 258.647 45.1665C255.299 47.2143 252.601 49.9604 250.554 53.4045C248.601 56.8486 247.624 60.6651 247.624 64.8539C247.624 69.0427 248.601 72.8592 250.554 76.3034C252.601 79.7475 255.299 82.4935 258.647 84.5414C261.996 86.5892 265.717 87.6131 269.81 87.6131Z" fill="white"/>
<path d="M41 50.8504C41 57.0082 36.01 62 29.8546 62H11.1454C4.98998 62 -5.38126e-07 57.0081 0 50.8504L3.46945e-06 11.1496C4.00758e-06 4.99185 4.98998 -5.38328e-07 11.1454 0L29.8546 1.63622e-06C36.01 2.17455e-06 41 4.99185 41 11.1496L41 50.8504Z" fill="white"/>
<path d="M47 32.1454C47 25.99 52.2334 21 58.6891 21H89.3109C95.7666 21 101 25.99 101 32.1454V50.8546C101 57.01 95.7666 62 89.3109 62H58.6891C52.2334 62 47 57.01 47 50.8546V32.1454Z" fill="white"/>
<path d="M89.3109 68H11.6891C5.23339 68 0 72.99 0 79.1454V97.8546C0 104.01 5.23339 109 11.6891 109H89.3109C95.7666 109 101 104.01 101 97.8546V79.1454C101 72.99 95.7666 68 89.3109 68Z" fill="white"/>
</svg>
