<svg width="110" height="25" viewBox="0 0 110 25" fill="none" xmlns="http://www.w3.org/2000/svg">
    <circle cx="98" cy="13" r="12" fill="url(#paint0_linear_105_5590)"/>
    <path d="M7.248 19.288C6.08 19.288 5.032 19.024 4.104 18.496C3.192 17.968 2.472 17.24 1.944 16.312C1.432 15.368 1.176 14.28 1.176 13.048C1.176 11.816 1.432 10.736 1.944 9.808C2.472 8.864 3.192 8.128 4.104 7.6C5.032 7.072 6.08 6.808 7.248 6.808C8.72 6.808 9.952 7.192 10.944 7.96C11.952 8.728 12.6 9.768 12.888 11.08H10.224C10.064 10.424 9.712 9.912 9.168 9.544C8.624 9.176 7.984 8.992 7.248 8.992C6.624 8.992 6.048 9.152 5.52 9.472C4.992 9.776 4.568 10.232 4.248 10.84C3.928 11.432 3.768 12.168 3.768 13.048C3.768 13.928 3.928 14.672 4.248 15.28C4.568 15.872 4.992 16.328 5.52 16.648C6.048 16.968 6.624 17.128 7.248 17.128C7.984 17.128 8.624 16.944 9.168 16.576C9.712 16.208 10.064 15.688 10.224 15.016H12.888C12.616 16.296 11.976 17.328 10.968 18.112C9.96 18.896 8.72 19.288 7.248 19.288ZM15.6471 19L15.6471 1.72H18.1911V9.016C18.5911 8.328 19.1431 7.792 19.8471 7.408C20.5671 7.008 21.3591 6.808 22.2231 6.808C23.6471 6.808 24.7671 7.256 25.5831 8.152C26.3991 9.048 26.8071 10.384 26.8071 12.16L26.8071 19H24.2871L24.2871 12.424C24.2871 10.12 23.3671 8.968 21.5271 8.968C20.5671 8.968 19.7671 9.304 19.1271 9.976C18.5031 10.648 18.1911 11.608 18.1911 12.856L18.1911 19H15.6471ZM33.8353 19.288C32.8273 19.288 31.9953 19.12 31.3393 18.784C30.6833 18.448 30.1953 18.008 29.8753 17.464C29.5553 16.904 29.3953 16.296 29.3953 15.64C29.3953 14.488 29.8433 13.576 30.7393 12.904C31.6353 12.232 32.9153 11.896 34.5793 11.896H37.6993V11.68C37.6993 10.752 37.4433 10.056 36.9313 9.592C36.4353 9.128 35.7873 8.896 34.9873 8.896C34.2833 8.896 33.6673 9.072 33.1393 9.424C32.6273 9.76 32.3153 10.264 32.2033 10.936H29.6593C29.7393 10.072 30.0273 9.336 30.5233 8.728C31.0353 8.104 31.6753 7.632 32.4433 7.312C33.2273 6.976 34.0833 6.808 35.0113 6.808C36.6753 6.808 37.9633 7.248 38.8753 8.128C39.7873 8.992 40.2433 10.176 40.2433 11.68V19H38.0353L37.8193 16.96C37.4833 17.616 36.9953 18.168 36.3553 18.616C35.7153 19.064 34.8753 19.288 33.8353 19.288ZM34.3393 17.224C35.0273 17.224 35.6033 17.064 36.0673 16.744C36.5473 16.408 36.9153 15.968 37.1713 15.424C37.4433 14.88 37.6113 14.28 37.6753 13.624H34.8433C33.8353 13.624 33.1153 13.8 32.6833 14.152C32.2673 14.504 32.0593 14.944 32.0593 15.472C32.0593 16.016 32.2593 16.448 32.6593 16.768C33.0753 17.072 33.6353 17.224 34.3393 17.224ZM43.2096 19V7.096H45.4656L45.6576 9.184C46.0256 8.448 46.5616 7.872 47.2656 7.456C47.9856 7.024 48.8096 6.808 49.7376 6.808C51.1776 6.808 52.3056 7.256 53.1216 8.152C53.9536 9.048 54.3696 10.384 54.3696 12.16V19H51.8496V12.424C51.8496 10.12 50.9056 8.968 49.0176 8.968C48.0736 8.968 47.2896 9.304 46.6656 9.976C46.0576 10.648 45.7536 11.608 45.7536 12.856V19H43.2096ZM62.2378 15.352C61.6138 15.352 61.0378 15.28 60.5098 15.136L59.4778 16.144C59.6538 16.256 59.8698 16.352 60.1258 16.432C60.3818 16.512 60.7418 16.584 61.2058 16.648C61.6698 16.712 62.3018 16.776 63.1018 16.84C64.6858 16.984 65.8298 17.368 66.5338 17.992C67.2378 18.6 67.5898 19.416 67.5898 20.44C67.5898 21.144 67.3978 21.808 67.0138 22.432C66.6458 23.072 66.0618 23.584 65.2618 23.968C64.4778 24.368 63.4698 24.568 62.2378 24.568C60.5738 24.568 59.2218 24.248 58.1818 23.608C57.1578 22.984 56.6458 22.032 56.6458 20.752C56.6458 20.256 56.7738 19.76 57.0298 19.264C57.3018 18.784 57.7258 18.328 58.3018 17.896C57.9658 17.752 57.6698 17.6 57.4138 17.44C57.1738 17.264 56.9578 17.088 56.7658 16.912V16.336L58.8298 14.224C57.9018 13.424 57.4378 12.376 57.4378 11.08C57.4378 10.296 57.6218 9.584 57.9898 8.944C58.3738 8.288 58.9258 7.768 59.6458 7.384C60.3658 7 61.2298 6.808 62.2378 6.808C62.9098 6.808 63.5338 6.904 64.1098 7.096H68.5498V8.776L66.4378 8.896C66.8218 9.552 67.0138 10.28 67.0138 11.08C67.0138 11.88 66.8218 12.6 66.4378 13.24C66.0698 13.88 65.5258 14.392 64.8058 14.776C64.1018 15.16 63.2458 15.352 62.2378 15.352ZM62.2378 13.36C62.9738 13.36 63.5658 13.168 64.0138 12.784C64.4778 12.384 64.7098 11.824 64.7098 11.104C64.7098 10.368 64.4778 9.808 64.0138 9.424C63.5658 9.04 62.9738 8.848 62.2378 8.848C61.4858 8.848 60.8778 9.04 60.4138 9.424C59.9658 9.808 59.7418 10.368 59.7418 11.104C59.7418 11.824 59.9658 12.384 60.4138 12.784C60.8778 13.168 61.4858 13.36 62.2378 13.36ZM59.0458 20.512C59.0458 21.2 59.3498 21.712 59.9578 22.048C60.5658 22.4 61.3258 22.576 62.2378 22.576C63.1178 22.576 63.8298 22.384 64.3738 22C64.9178 21.632 65.1898 21.136 65.1898 20.512C65.1898 20.048 65.0058 19.648 64.6378 19.312C64.2698 18.992 63.5738 18.792 62.5498 18.712C61.7818 18.664 61.1018 18.592 60.5098 18.496C59.9498 18.8 59.5658 19.128 59.3578 19.48C59.1498 19.832 59.0458 20.176 59.0458 20.512ZM75.9182 19.288C74.7502 19.288 73.7102 19.032 72.7982 18.52C71.9022 17.992 71.1982 17.264 70.6862 16.336C70.1742 15.408 69.9182 14.328 69.9182 13.096C69.9182 11.848 70.1662 10.752 70.6622 9.808C71.1742 8.864 71.8782 8.128 72.7742 7.6C73.6862 7.072 74.7422 6.808 75.9422 6.808C77.1102 6.808 78.1262 7.072 78.9902 7.6C79.8542 8.112 80.5262 8.8 81.0062 9.664C81.4862 10.528 81.7262 11.48 81.7262 12.52C81.7262 12.68 81.7182 12.856 81.7022 13.048C81.7022 13.224 81.6942 13.424 81.6782 13.648H72.4142C72.4942 14.8 72.8702 15.68 73.5422 16.288C74.2302 16.88 75.0222 17.176 75.9182 17.176C76.6382 17.176 77.2382 17.016 77.7182 16.696C78.2142 16.36 78.5822 15.912 78.8222 15.352H81.3662C81.0462 16.472 80.4062 17.408 79.4462 18.16C78.5022 18.912 77.3262 19.288 75.9182 19.288ZM75.9182 8.896C75.0702 8.896 74.3182 9.152 73.6622 9.664C73.0062 10.16 72.6062 10.912 72.4622 11.92H79.1822C79.1342 10.992 78.8062 10.256 78.1982 9.712C77.5902 9.168 76.8302 8.896 75.9182 8.896Z" fill="white"/>
    <path d="M98.176 19.288C97.008 19.288 95.968 19.032 95.056 18.52C94.16 17.992 93.456 17.264 92.944 16.336C92.432 15.408 92.176 14.328 92.176 13.096C92.176 11.848 92.424 10.752 92.92 9.808C93.432 8.864 94.136 8.128 95.032 7.6C95.944 7.072 97 6.808 98.2 6.808C99.368 6.808 100.384 7.072 101.248 7.6C102.112 8.112 102.784 8.8 103.264 9.664C103.744 10.528 103.984 11.48 103.984 12.52C103.984 12.68 103.976 12.856 103.96 13.048C103.96 13.224 103.952 13.424 103.936 13.648H94.672C94.752 14.8 95.128 15.68 95.8 16.288C96.488 16.88 97.28 17.176 98.176 17.176C98.896 17.176 99.496 17.016 99.976 16.696C100.472 16.36 100.84 15.912 101.08 15.352H103.624C103.304 16.472 102.664 17.408 101.704 18.16C100.76 18.912 99.584 19.288 98.176 19.288ZM98.176 8.896C97.328 8.896 96.576 9.152 95.92 9.664C95.264 10.16 94.864 10.912 94.72 11.92H101.44C101.392 10.992 101.064 10.256 100.456 9.712C99.848 9.168 99.088 8.896 98.176 8.896Z" fill="white"/>
    <defs>
        <linearGradient id="paint0_linear_105_5590" x1="98" y1="1" x2="98" y2="25" gradientUnits="userSpaceOnUse">
            <stop stop-color="#65ADFF"/>
            <stop offset="1" stop-color="#0077FE"/>
        </linearGradient>
    </defs>
</svg>
