<?xml version="1.0" encoding="utf-8"?>
<!-- Generator: Adobe Illustrator 28.0.0, SVG Export Plug-In . SVG Version: 6.00 Build 0)  -->
<svg version="1.1" id="Layer_1" xmlns="http://www.w3.org/2000/svg" xmlns:xlink="http://www.w3.org/1999/xlink" x="0px" y="0px"
	 viewBox="0 0 240 148" style="enable-background:new 0 0 240 148;" xml:space="preserve">
<style type="text/css">
	.st0{fill:#151515;}
	.st1{fill:#93347B;}
	.st2{fill:#FFFFFF;}
	.st3{fill-rule:evenodd;clip-rule:evenodd;fill:#FFFFFF;}
</style>
<path class="st0" d="M16,0h208c8.8,0,16,7.2,16,16v116c0,8.8-7.2,16-16,16H16c-8.8,0-16-7.2-16-16V16C0,7.2,7.2,0,16,0z"/>
<g>
	<path class="st1" d="M46.9,60.8l12.6,9.6v7.3l-12.6-9.2l-12.6,9.2v-7.3L46.9,60.8z"/>
	<path class="st2" d="M46.9,87.1l-12.6-9.6v-7.3l12.6,9.2l12.6-9.2v7.3L46.9,87.1z"/>
	<path class="st3" d="M118.8,68.4v18.4h5.1V68.4H118.8z M119.3,65.4c0.6,0.5,1.3,0.8,2.1,0.8c0.8,0,1.5-0.3,2.1-0.8
		c0.6-0.5,0.9-1.2,0.9-1.9c0-0.8-0.3-1.4-0.9-1.9c-0.5-0.5-1.2-0.8-2.1-0.8c-0.8,0-1.5,0.3-2.1,0.8c-0.6,0.5-0.9,1.2-0.9,1.9
		C118.5,64.3,118.8,64.9,119.3,65.4z M148,62v24.8h4.9v-8.4l7.9,8.4h6.3l-9.4-10l8.8-8.5H161l-8.1,7.8V61.2L148,62z M176.6,87.2
		c-1.8,0-3.5-0.4-5-1.3c-1.5-0.8-2.7-2-3.6-3.4c-0.9-1.4-1.3-3-1.3-4.8c0-1.8,0.4-3.4,1.2-4.8c0.9-1.4,2-2.6,3.4-3.4
		c1.4-0.8,3.1-1.3,4.8-1.3c1.8,0,3.4,0.4,4.7,1.3c1.4,0.9,2.5,2,3.2,3.5c0.8,1.5,1.2,3.2,1.2,5v1.3h-13.7c0.2,0.7,0.6,1.4,1,2
		c0.5,0.6,1.1,1,1.8,1.4c0.7,0.3,1.5,0.5,2.3,0.5c0.8,0,1.6-0.1,2.3-0.4c0.7-0.3,1.3-0.6,1.8-1.1l3.2,2.9c-1.1,0.9-2.3,1.6-3.5,2
		C179.4,87,178.1,87.2,176.6,87.2z M171.6,75.9h9c-0.2-0.7-0.5-1.4-0.9-1.9c-0.4-0.6-0.9-1-1.6-1.3c-0.6-0.3-1.3-0.5-2-0.5
		c-0.8,0-1.4,0.2-2.1,0.5c-0.6,0.3-1.1,0.7-1.6,1.3C172.1,74.5,171.8,75.1,171.6,75.9z M185.8,86.8l7.1-9.3l-7-8.9h5.7l4.1,5.4
		l4.1-5.4h5.5l-6.9,8.9l7.3,9.3H200l-4.4-5.8l-4.4,5.8H185.8z M137.4,87.2c-1.8,0-3.5-0.4-5-1.2c-1.5-0.8-2.6-2-3.5-3.4
		c-0.9-1.5-1.3-3.1-1.3-4.9c0-1.8,0.4-3.4,1.3-4.9c0.9-1.4,2-2.6,3.5-3.4c1.5-0.8,3.1-1.3,5-1.3c1.5,0,2.9,0.3,4.2,0.8
		c1.4,0.6,2.5,1.4,3.5,2.4l-3,3.1c-0.7-0.8-1.4-1.3-2.2-1.7c-0.7-0.4-1.5-0.6-2.4-0.6c-1,0-1.8,0.2-2.6,0.7
		c-0.7,0.5-1.3,1.1-1.8,1.9c-0.4,0.8-0.6,1.7-0.6,2.7c0,1,0.2,1.9,0.6,2.7c0.5,0.8,1.1,1.4,1.9,1.9c0.8,0.4,1.7,0.7,2.6,0.7
		c0.8,0,1.6-0.2,2.3-0.5c0.7-0.4,1.4-0.9,2.1-1.5l2.9,3c-1,1-2.1,1.8-3.4,2.4C140.2,87,138.8,87.2,137.4,87.2z M104.2,87.2
		c-1.4,0-2.7-0.3-3.8-0.9c-1.1-0.6-2-1.5-2.6-2.6c-0.6-1.1-0.9-2.4-0.9-3.8V68.6h4.9v10.6c0,1.2,0.3,2.1,1,2.8
		c0.7,0.7,1.7,1.1,2.9,1.1c0.8,0,1.5-0.2,2.2-0.5c0.7-0.3,1.2-0.8,1.6-1.4V68.6h4.9v18.3h-4.9v-1.5C108,86.6,106.3,87.2,104.2,87.2z
		 M85.8,85.9c-0.8,0.4-1.8,0.7-2.8,1c-0.9,0.2-1.9,0.4-3,0.4c-1.8,0-3.5-0.3-5.1-1c-1.6-0.7-3-1.6-4.2-2.7c-1.2-1.2-2.1-2.5-2.8-4.1
		c-0.7-1.6-1-3.2-1-5c0-1.8,0.3-3.5,1-5c0.7-1.6,1.6-2.9,2.8-4.1c1.2-1.2,2.6-2.1,4.2-2.7c1.6-0.7,3.3-1,5.1-1c1.8,0,3.5,0.3,5.1,1
		c1.6,0.6,3,1.6,4.2,2.7c1.2,1.2,2.1,2.5,2.8,4.1c0.7,1.5,1,3.2,1,5c0,1.8-0.3,3.4-1,5c-0.5,1.3-1.2,2.4-2.1,3.4l3.1,4h-6.6
		L85.8,85.9z M87.4,77.2c-0.2,0.5-0.4,1-0.7,1.5l-1.9-2.4h-6.4l4.3,5.7c-0.6,0.2-1.1,0.4-1.4,0.5c-0.4,0.1-0.8,0.1-1.3,0.1
		c-1.1,0-2.1-0.2-3.1-0.6c-0.9-0.4-1.8-1-2.5-1.7c-0.7-0.7-1.2-1.6-1.6-2.6c-0.4-1-0.6-2.1-0.6-3.2c0-1.2,0.2-2.2,0.6-3.2
		c0.4-1,0.9-1.8,1.6-2.6c0.7-0.7,1.5-1.3,2.5-1.7c1-0.4,2-0.6,3.1-0.6c1.1,0,2.2,0.2,3.1,0.6c0.9,0.4,1.8,1,2.5,1.7
		c0.7,0.7,1.3,1.6,1.7,2.6c0.4,1,0.6,2,0.6,3.2C87.9,75.4,87.7,76.3,87.4,77.2z"/>
</g>
</svg>
